<svg width="800" height="800" viewBox="0 0 800 800" fill="none" xmlns="http://www.w3.org/2000/svg">
<path d="M724.75 418.624L712.5 412.499H631.25C620.875 412.499 612.5 404.124 612.5 393.749C612.5 383.374 620.875 374.999 631.25 374.999H667.5L652.5 356.249C643 344.374 628.625 337.499 613.5 337.499H500L374.75 257.874C366.75 252.749 357.5 249.999 348 249.999H317.625C306.5 249.999 301 263.499 308.875 271.374L375 337.499H162.5L116.125 256.249C113.875 252.374 109.75 249.999 105.25 249.999H76.4999C68.9999 249.999 63.2499 256.499 63.9999 263.874L73.1249 345.124C74.3749 356.374 79.4999 366.999 87.4999 374.999L118.75 406.249L83.8749 441.124C75.9999 448.999 81.4999 462.499 92.6249 462.499H111.125C120.25 462.499 129.125 459.999 136.875 455.374C163.289 439.429 143.108 451.56 239.25 393.874C245.25 390.374 252.875 392.249 256.375 398.249C260.181 404.34 257.897 411.837 252.125 415.374L183.125 456.749C193.625 460.499 204.875 462.499 216.375 462.499H375L308.875 528.624C301 536.499 306.5 549.999 317.625 549.999H346.5C356.875 549.999 367 546.749 375.5 540.624C507.106 446.728 474.145 470.248 527.375 432.249C532.875 428.249 540.75 429.499 544.75 435.124C548.927 440.907 547.373 448.754 541.875 452.624L528 462.499H714.375C727.125 462.499 737.5 452.124 737.5 439.374V439.249C737.5 430.499 732.5 422.499 724.75 418.624ZM312.5 387.499C312.5 394.409 306.909 399.999 300 399.999C293.091 399.999 287.5 394.409 287.5 387.499V374.999C287.5 368.09 293.091 362.499 300 362.499C306.909 362.499 312.5 368.09 312.5 374.999V387.499ZM362.5 387.499C362.5 394.409 356.909 399.999 350 399.999C343.091 399.999 337.5 394.409 337.5 387.499V374.999C337.5 368.09 343.091 362.499 350 362.499C356.909 362.499 362.5 368.09 362.5 374.999V387.499ZM412.5 387.499C412.5 394.409 406.909 399.999 400 399.999C393.091 399.999 387.5 394.409 387.5 387.499V374.999C387.5 368.09 393.091 362.499 400 362.499C406.909 362.499 412.5 368.09 412.5 374.999V387.499ZM462.5 387.499C462.5 394.409 456.909 399.999 450 399.999C443.091 399.999 437.5 394.409 437.5 387.499V374.999C437.5 368.09 443.091 362.499 450 362.499C456.909 362.499 462.5 368.09 462.5 374.999V387.499ZM512.5 387.499C512.5 394.409 506.909 399.999 500 399.999C493.091 399.999 487.5 394.409 487.5 387.499V374.999C487.5 368.09 493.091 362.499 500 362.499C506.909 362.499 512.5 368.09 512.5 374.999V387.499ZM562.5 387.499C562.5 394.409 556.909 399.999 550 399.999C543.091 399.999 537.5 394.409 537.5 387.499V374.999C537.5 368.09 543.091 362.499 550 362.499C556.909 362.499 562.5 368.09 562.5 374.999V387.499ZM240.125 215.103L208.95 247.073C204.044 252.104 195.958 252.104 191.052 247.073L159.876 215.104C148.912 203.86 146.772 185.81 156.587 173.551C167.751 159.61 187.872 158.859 200 171.298C212.13 158.86 232.248 159.61 243.412 173.551C253.23 185.807 251.089 203.859 240.125 215.103ZM640.125 596.353L608.95 628.323C604.044 633.354 595.958 633.354 591.052 628.323L559.877 596.354C548.912 585.11 546.772 567.06 556.589 554.801C567.753 540.86 587.873 540.109 600.002 552.548C612.131 540.11 632.25 540.86 643.414 554.801C653.23 567.057 651.089 585.109 640.125 596.353Z" fill="black"/>
</svg>
