<svg width="800" height="800" viewBox="0 0 800 800" fill="none" xmlns="http://www.w3.org/2000/svg">
<path d="M400 225C389.77 225 300 223.95 300 187.5C300 151.05 389.77 150 400 150C410.23 150 500 151.05 500 187.5C500 223.95 410.23 225 400 225ZM327.136 187.5C335.559 192.694 360.79 200 400 200C439.209 200 464.44 192.694 472.864 187.5C464.44 182.306 439.209 175 400 175C360.79 175 335.559 182.306 327.136 187.5ZM737.475 480.17L619.237 361.939C594.82 337.358 555.137 337.398 530.786 361.914L518.622 374.078C517.923 362.384 504.533 352.841 501.125 342.125C497.375 330.75 503 314.625 496.125 305.25C489.125 295.625 472 296 462.5 289C453 282.125 448 265.75 436.75 262C425.75 258.5 412.125 268.75 400 268.75C387.875 268.75 374.25 258.5 363.25 262C352 265.75 347 282.125 337.5 289C328 296 310.875 295.625 303.875 305.25C297 314.625 302.625 330.75 298.875 342.125C295.465 352.839 282.076 362.386 281.378 374.078L269.239 361.937C244.822 337.356 205.139 337.397 180.787 361.912L62.5139 480.18C57.7905 484.916 55.2014 491.209 55.2139 497.898C55.2264 504.581 57.8514 510.862 62.5873 515.575L73.5373 526.47C82.4717 535.383 95.3577 539.637 108.462 536.48L123.537 551.47C133.034 560.948 146.219 564.508 158.511 561.438L173.537 576.47C182.986 585.9 196.169 589.464 208.486 586.498L223.476 601.409C230.569 608.581 239.981 612.536 250.003 612.536C254.348 612.536 258.531 611.658 262.503 610.236C262.5 635.23 280.647 650 300 650H500C518.912 650 537.5 635.706 537.5 610.234C552.031 615.444 566.73 611.319 576.44 601.489L591.515 586.498C603.869 589.47 617.028 585.9 626.464 576.464L641.49 561.438C653.783 564.489 666.967 560.948 676.439 551.489L691.562 536.453C713.962 541.834 724.912 528.005 737.412 515.581C742.148 510.862 744.773 504.583 744.786 497.9C744.8 491.211 742.212 484.919 737.475 480.17ZM350 384.375C350 359.009 368.981 337.994 393.664 334.766C398.901 346.289 407.323 356.275 418.005 363.483C427.331 369.787 437.926 373.591 449.059 374.708C449.695 377.844 450 381.048 450 384.375V409.375C450 443.298 416.68 467.32 384.155 456.709C364.85 450.373 350 431.936 350 409.375V384.375ZM262.5 559.375V580.072L258.728 583.844C254.04 588.605 246.045 588.684 241.186 583.764L230.142 572.786L245.214 557.714C250.097 552.831 250.097 544.92 245.214 540.037C240.331 535.155 232.42 535.155 227.537 540.037L208.812 558.756C204.114 563.419 196.445 564.014 191.209 558.787L180.173 547.752L220.212 507.713C225.095 502.83 225.095 494.919 220.212 490.036C215.33 485.153 207.419 485.153 202.536 490.036L158.811 533.755C154.748 537.852 146.762 539.33 141.184 533.761L130.148 522.789L225.036 428.084L299.43 502.478C277.714 512.287 262.5 534.044 262.5 559.375ZM242.712 410.406C232.934 400.641 217.04 400.647 207.287 410.4L108.814 508.758C103.964 513.57 96.2983 513.859 91.1873 508.764L80.2014 497.845L198.487 379.566C212.648 365.333 237.33 365.308 251.539 379.591L300.175 428.231C300.164 434.433 300.642 440.336 303.876 444.752C312.57 456.705 326.494 463.245 344.575 459.798C346.281 461.655 348.098 463.411 350.001 465.094V496.875H329.176L242.712 410.406ZM441.965 602.656L412.303 632.398C405.514 639.206 394.487 639.206 387.698 632.398L358.036 602.656C347.239 591.83 345.011 572.267 354.68 560.422C364.819 547.998 382.067 545.825 394.72 553.861C390.128 541.391 381.205 517.873 375.001 506.12V480.131C391.04 485.817 409.501 485.589 425.001 480.089V506.12C418.801 517.869 409.855 541.447 405.283 553.861C417.936 545.825 435.184 547.998 445.323 560.422C454.99 572.269 452.762 591.83 441.965 602.656ZM658.789 533.783C653.283 539.323 645.305 537.881 641.211 533.789L597.461 490.039C592.578 485.156 584.667 485.156 579.784 490.039C574.901 494.922 574.901 502.833 579.784 507.716L619.819 547.756L608.787 558.784C603.623 563.948 595.967 563.472 591.209 558.791L572.459 540.041C567.576 535.158 559.665 535.158 554.783 540.041C549.9 544.923 549.9 552.834 554.783 557.717L569.851 572.789L558.726 583.845C554.039 588.606 546.019 588.661 541.209 583.791L537.5 580.075V558.502C537.5 533.413 522.375 511.858 500.811 502.253L575.036 428.088L669.85 522.789L658.789 533.783ZM708.789 508.783C703.761 513.827 696.036 513.569 691.211 508.783L592.712 410.4C582.934 400.634 567.04 400.647 557.287 410.413L470.825 496.875H450V465.131C451.911 463.434 453.737 461.662 455.447 459.797C458.217 460.319 460.722 460.747 462.5 461.002C475 462.502 489.125 454.377 496.125 444.752C499.359 440.334 499.836 434.43 499.826 428.227L548.487 379.566C562.648 365.333 587.33 365.308 601.539 379.591L719.789 497.853L708.789 508.783Z" fill="black"/>
</svg>
