<svg width="800" height="800" viewBox="0 0 800 800" fill="none" xmlns="http://www.w3.org/2000/svg">
<path d="M325 412.5C325 419.39 319.391 425 312.5 425C305.609 425 300 419.39 300 412.5C300 405.609 305.609 400 312.5 400C319.391 400 325 405.609 325 412.5ZM487.5 400C480.609 400 475 405.609 475 412.5C475 419.39 480.609 425 487.5 425C494.391 425 500 419.39 500 412.5C500 405.609 494.391 400 487.5 400ZM580.375 687.5H219.625C189.375 687.5 166 660.875 170 630.875L212.5 312.5L233.542 263.467C204.417 223.701 206.814 173.281 232.83 139.385C267.547 94.2339 331.272 86.7886 375 121.606C418.691 86.8308 482.392 94.1651 517.162 139.379C523.417 147.456 528.186 156.453 531.537 166.109C566.226 177.837 584.017 215.093 570.569 250.048C569.201 253.731 567.4 257.298 565.347 260.745L587.5 312.5L630 630.875C634 660.875 610.625 687.5 580.375 687.5ZM519.12 188.368C519.116 188.368 519.109 188.368 519.105 188.367C506.214 185.725 493.061 189.692 483.923 199C481.58 201.392 478.375 202.742 475.025 202.746C475.019 202.746 475.006 202.746 475 202.746C471.661 202.746 468.456 201.41 466.112 199.035C458.251 191.082 447.337 186.859 436.278 187.621C410.101 189.259 392.011 216.49 403.466 242.901C408.336 254.481 414.534 258.387 455.608 300H494.403C535.516 258.335 542.534 253.806 547.144 241.303C547.169 241.242 547.192 241.181 547.217 241.114C556.644 216.709 541.408 192.948 519.12 188.368ZM261.322 257.764L303.094 300H420.475C392.833 271.99 386.65 267.448 380.473 252.715C362.098 210.34 391.591 165.365 434.709 162.67C449.131 161.742 463.28 165.807 474.969 173.95C483.347 168.076 493.845 164.271 502.959 163.079C478.587 119.75 419.297 111.398 383.88 147.167C381.536 149.535 378.337 150.871 374.998 150.871C371.659 150.871 368.461 149.535 366.117 147.167C334.772 115.485 281.686 116.856 252.659 154.614C230.008 184.126 232.67 228.456 261.322 257.764ZM525 412.5C525 391.821 508.178 375 487.5 375C466.822 375 450 391.821 450 412.5C450 428.775 460.481 442.518 475 447.695V500C475 541.357 441.358 575 400 575C358.642 575 325 541.357 325 500V447.696C339.519 442.52 350 428.775 350 412.5C350 391.821 333.178 375 312.5 375C291.822 375 275 391.821 275 412.5C275 428.775 285.481 442.518 300 447.695V500C300 555.139 344.861 600 400 600C455.139 600 500 555.139 500 500V447.696C514.519 442.52 525 428.775 525 412.5Z" fill="black"/>
</svg>
