<svg width="800" height="800" viewBox="0 0 800 800" fill="none" xmlns="http://www.w3.org/2000/svg">
<path d="M272.484 553.477C246.711 544.386 224.395 527.521 208.613 505.208C192.832 482.896 184.363 456.236 184.375 428.907V393.751C184.384 361.701 196.051 330.749 217.199 306.667C238.347 282.585 267.532 267.017 299.312 262.868L301.297 60.2038C336.156 33.8809 358.813 21.3132 369.266 22.5007C469.401 33.8549 538.76 78.0684 577.344 155.141V633.954C507.401 734.553 401.286 780.683 259 772.344C219.63 770.037 193.958 741.18 181.984 685.774L272.484 553.477Z" fill="white"/>
<path d="M457.992 339.43C457.747 340.039 457.508 340.651 457.273 341.266C479.287 343.079 499.814 353.104 514.78 369.349C529.746 385.594 538.057 406.873 538.062 428.961V528.562C542.569 557.442 556.557 584.001 577.82 604.055C568.539 658.516 532.617 707.367 430.859 756.25C398.696 767.859 365.164 775.257 331.102 778.258C266.984 770.312 228.391 730.031 228.391 697.336C228.391 684.969 235.656 673.391 248.289 663.5L247.508 662.359C260.156 648.672 319.289 608.32 345.313 564.687C357.333 544.536 365.31 511.026 369.242 464.156C369.244 436.723 377.791 409.971 393.697 387.618C409.602 365.266 432.074 348.423 457.992 339.43Z" fill="#FCDD82"/>
<path d="M502.859 358.594C505.686 360.714 508.384 363.002 510.937 365.445C510.641 366.18 510.349 366.917 510.063 367.656C511.214 367.75 512.359 367.865 513.5 368C529.268 384.365 538.065 406.212 538.039 428.937V528.562C542.546 557.442 556.533 584.001 577.797 604.055C568.539 658.516 532.617 707.367 430.859 756.25C378.039 775.539 328.516 779.688 301.297 779.688C286.155 779.757 271.067 777.89 256.398 774.133C251.929 770.369 247.803 766.214 244.07 761.719C244.383 757.031 244.826 752.271 245.398 747.437C336.326 757.792 407.786 721.667 459.781 639.062C483.776 597.781 492.086 504.615 484.711 359.562L486.492 359.352L486.062 358.57L502.859 358.594Z" fill="#F9B04A"/>
<path d="M271.875 553.242C258.175 540.884 247.226 525.784 239.739 508.921C232.252 492.058 228.394 473.81 228.414 455.359V420.164C228.414 347.273 287.531 288.18 360.445 288.18C375.622 288.166 390.687 290.772 404.977 295.883C416.662 306.45 426.368 319.017 433.641 332.992C367.703 340.344 316.406 396.266 316.406 464.156V560.938C301.23 560.954 286.165 558.351 271.875 553.242Z" fill="#FFF8D1"/>
<path d="M457.281 341.258C466.479 317.244 483.796 297.21 506.224 284.632C528.653 272.054 554.778 267.728 580.064 272.403C605.351 277.078 628.201 290.461 644.65 310.227C661.098 329.993 670.106 354.894 670.109 380.609V499.359H668.547V640.14C637.065 640.137 606.62 628.888 582.699 608.421C558.777 587.955 542.953 559.617 538.078 528.515V428.969C538.078 406.876 529.768 385.591 514.8 369.342C499.832 353.093 479.3 343.068 457.281 341.258Z" fill="#FFF8D2"/>
<path d="M360.438 59.3984L562.906 147.391V424.281L369.242 261.773L360.438 59.3984Z" fill="#FFF6E0"/>
<path d="M488.969 59.1025C548.805 97.9307 581.047 153.376 561.625 186.985C545.14 215.524 496.398 219.696 443.156 200.478C383.32 161.649 351.078 106.204 370.5 72.5947C386.984 44.0557 435.726 39.8838 488.969 59.1025Z" fill="#FFFAEC"/>
<path d="M294.609 64.3438H326.609V264.352H294.609V64.3438Z" fill="black"/>
<path d="M552.359 176.531H584.359V264.539H552.359V176.531Z" fill="black"/>
<path d="M504.227 229.875C502.456 229.875 500.664 229.844 498.852 229.781C465.922 228.617 428.539 216.836 393.469 196.609C358.398 176.383 329.523 149.867 312.047 121.938C292.453 90.6251 289.062 60.5782 302.445 37.3673C315.828 14.1564 343.547 2.10168 380.469 3.40637C413.398 4.57824 450.781 16.3517 485.852 36.5782C520.922 56.8048 549.797 83.3204 567.273 111.25C586.867 142.57 590.281 172.602 576.875 195.813C564.141 217.883 538.461 229.875 504.227 229.875ZM375.141 38.5079C354.281 38.5079 339.016 44.4142 332.953 54.9689C326.469 66.1954 329.734 83.797 341.914 103.266C356.391 126.406 380.977 148.727 411.094 166.125C441.211 183.524 472.812 193.633 500.156 194.602C523.094 195.383 540 189.445 546.461 178.195C552.922 166.945 549.68 149.367 537.5 129.899C523.023 106.758 498.437 84.4376 468.32 67.0392C438.187 49.6407 406.602 39.5236 379.258 38.5626C377.844 38.5314 376.484 38.5079 375.141 38.5079ZM301.297 795.609C262.57 795.609 226.508 784.742 199.734 765.016C174.57 746.453 159.539 721.149 159.539 697.336C159.539 677.391 171.969 662.406 182.797 651.578L183.375 650.992C215.836 615.836 239.047 586.188 254.305 547.258C255.927 543.174 259.08 539.885 263.091 538.09C267.102 536.296 271.655 536.137 275.781 537.649C283.731 540.616 291.984 542.697 300.391 543.852V464.164C300.397 427.771 313.81 392.656 338.067 365.525C362.324 338.394 395.725 321.15 431.891 317.086C433.639 316.886 435.397 316.782 437.156 316.774C439.695 316.719 442.953 316.68 446.094 316.68H446.758C460.391 316.68 463.031 317.211 464.461 317.461C489.414 322.453 512.234 336.555 528.711 357.164C545.027 377.526 553.963 402.814 554.062 428.906V533.555C558.344 559.031 570.953 575.445 588.539 592.149C590.54 594.05 592.041 596.416 592.907 599.037C593.774 601.658 593.98 604.452 593.508 607.172C581.93 674.055 533.914 724.453 437.813 770.594C437.43 770.781 436.992 770.969 436.523 771.149L436.297 771.234C376.102 793.242 321.836 795.609 301.297 795.609ZM278.578 572.063C261.625 609.313 237.422 639.656 206.875 672.742C206.508 673.141 205.883 673.774 205.453 674.195C195.719 683.93 191.57 690.844 191.57 697.32C191.57 710.813 201.992 726.883 218.758 739.25C240.039 754.953 269.352 763.602 301.289 763.602C320.039 763.602 369.5 761.438 424.633 741.438C471.094 719.07 504.594 696.234 527.031 671.641C544.391 652.609 555.156 632.672 560.445 609.43C543.75 592.5 527.437 570.524 522.266 537.344C522.062 536.094 522.062 536.094 522.062 529.281V428.961C522.062 390.727 494.781 356.406 458.547 348.969C454.898 348.602 439.852 348.664 435.828 348.852L435.437 348.891C407.085 352.043 380.893 365.549 361.883 386.82C342.872 408.09 332.382 435.629 332.422 464.156V560.156C332.422 564.611 330.652 568.884 327.502 572.034C324.352 575.184 320.08 576.953 315.625 576.953H315.516C303.046 576.885 290.635 575.242 278.578 572.063Z" fill="black"/>
<path d="M332.883 577.344H316.797C234.961 577.344 168.359 510.782 168.359 428.961V393.75C168.359 312.141 234.766 245.743 316.359 245.743C343.494 245.686 370.12 253.107 393.314 267.189C416.508 281.271 435.375 301.47 447.844 325.571L458.594 346.305L435.406 348.883C407.026 352.157 380.837 365.743 361.817 387.06C342.797 408.377 332.272 435.939 332.242 464.508L332.883 577.344ZM316.406 277.774C252.445 277.774 200.406 329.813 200.406 393.782V428.938C200.406 487.657 244.156 536.36 300.734 544.219L300.297 464.532C300.325 432.348 310.797 401.042 330.137 375.318C349.478 349.594 376.645 330.84 407.555 321.875C396.696 308.099 382.848 296.971 367.058 289.331C351.268 281.691 333.948 277.739 316.406 277.774Z" fill="black"/>
<path d="M684.266 653.422H668.266C632.875 653.422 597.891 640.859 569.742 618.039L589.891 593.18C607.809 607.76 629.383 617.145 652.266 620.313V381.414C652.188 355.886 642.549 331.313 625.25 312.539C607.781 293.789 584.625 283.445 560.078 283.445C541.043 283.444 522.455 289.217 506.77 300.003C491.084 310.788 479.04 326.077 472.227 343.852L442.344 332.414C451.473 308.592 467.614 288.1 488.635 273.645C509.656 259.19 534.567 251.452 560.078 251.453C593.625 251.453 625.086 265.406 648.672 290.742C671.609 315.357 684.332 347.769 684.266 381.414V653.422Z" fill="black"/>
<path d="M222.204 734.766C211.85 734.751 201.505 734.149 191.219 732.962C189.639 732.801 188.107 732.328 186.711 731.571C185.315 730.813 184.084 729.786 183.088 728.549C182.092 727.312 181.351 725.89 180.909 724.365C180.467 722.84 180.332 721.242 180.512 719.664C180.692 718.086 181.183 716.56 181.957 715.173C182.731 713.786 183.773 712.567 185.022 711.586C186.271 710.605 187.702 709.882 189.233 709.458C190.763 709.035 192.362 708.919 193.938 709.118C236.829 714.001 275.524 707.915 308.961 691.016C342.399 674.118 372.016 645.626 396.696 606.493C407.766 587.329 415.375 554.844 419.352 509.923C423.414 463.649 423.563 403.462 419.797 331.016C419.715 329.442 419.944 327.868 420.47 326.382C420.997 324.897 421.811 323.53 422.865 322.359C423.92 321.188 425.195 320.236 426.618 319.558C428.041 318.88 429.583 318.489 431.157 318.407C432.73 318.325 434.305 318.554 435.79 319.08C437.276 319.606 438.643 320.42 439.814 321.475C440.985 322.53 441.936 323.805 442.615 325.228C443.293 326.65 443.684 328.192 443.766 329.766C451.579 480.18 442.985 574.696 417.375 618.704L417.157 619.063C368.75 695.954 303.25 734.766 222.204 734.766Z" fill="black"/>
</svg>
