<svg width="800" height="800" viewBox="0 0 800 800" fill="none" xmlns="http://www.w3.org/2000/svg">
<path d="M662.4 275.494C662.406 275.32 662.5 275.175 662.5 275V225C662.5 204.322 645.678 187.5 625 187.5V159.686C625 134.034 599.897 115.995 575.647 124.108L550.647 132.439C550.641 132.439 550.641 132.439 550.641 132.439C543.822 134.713 538.084 138.87 533.719 144.131C527.677 139.966 520.378 137.5 512.5 137.5H487.5C479.622 137.5 472.323 139.966 466.281 144.133C461.916 138.872 456.178 134.714 449.359 132.441C449.359 132.441 449.359 132.441 449.353 132.441L424.359 124.109C400.064 115.994 375 134.062 375 159.686V187.5C370.595 187.5 366.43 188.403 362.5 189.803V150C362.5 129.322 345.678 112.5 325 112.5H300C279.322 112.5 262.5 129.322 262.5 150V275H235.508L215.417 155.066C211.706 130.395 190.906 112.5 165.967 112.5H137.5C123.694 112.5 112.5 123.694 112.5 137.5C112.5 151.306 123.694 162.5 137.5 162.5L166.041 162.916L237.842 591.627C239.856 603.675 250.281 612.5 262.5 612.5H342.28C331.78 621.672 325 634.995 325 650C325 677.57 347.43 700 375 700C402.57 700 425 677.57 425 650C425 634.995 418.22 621.672 407.72 612.5H467.28C456.78 621.672 450 634.995 450 650C450 677.57 472.43 700 500 700C527.57 700 550 677.57 550 650C550 634.995 543.22 621.672 532.72 612.5H600C613.806 612.5 625 601.306 625 587.5C625 573.694 613.806 562.5 600 562.5H283.667L275.292 512.5H626.5C638.75 512.5 649.25 503.625 651.25 491.625L682.625 304.125C684.878 290.38 675.52 277.852 662.4 275.494ZM375 675C361.212 675 350 663.788 350 650C350 636.212 361.212 625 375 625C388.788 625 400 636.212 400 650C400 663.788 388.788 675 375 675ZM500 675C486.212 675 475 663.788 475 650C475 636.212 486.212 625 500 625C513.788 625 525 636.212 525 650C525 663.788 513.788 675 500 675ZM550 168.017C550 162.628 553.436 157.861 558.552 156.158L583.552 147.827C591.519 145.128 600 151.058 600 159.686V187.5H550V175V168.017ZM533.972 393.036C539.477 399.952 538.367 410.925 531.439 418.011C531.427 418.023 531.42 418.03 531.414 418.036L500.298 450L469.109 418.061C462.231 410.944 461.15 399.952 466.656 393.03C473.078 384.948 484.362 384.578 491.278 391.705C493.634 394.134 496.869 395.502 500.25 395.502C500.263 395.502 500.269 395.502 500.281 395.502C503.675 395.495 506.916 394.109 509.266 391.663C515.989 384.648 527.464 384.977 533.972 393.036ZM475 275V212.5H525V275H475ZM487.5 162.5H512.5C519.391 162.5 525 168.109 525 175V187.5H475V175C475 168.109 480.609 162.5 487.5 162.5ZM400 159.686C400 151.148 408.317 145.131 416.455 147.827L441.448 156.158C446.563 157.861 450 162.628 450 168.017V175V187.5H400V159.686ZM375 212.5H387.5H450V275H362.5V225C362.5 218.109 368.109 212.5 375 212.5ZM287.5 275V150C287.5 143.109 293.109 137.5 300 137.5H325C331.891 137.5 337.5 143.109 337.5 150V225V275H287.5ZM404.25 453.875L353.5 402.5C335 383.75 331.75 353.75 347.875 332.75C367.25 307.5 403.375 305.875 425 327.75C446.625 305.875 482.75 307.5 502.125 332.75C508.967 341.611 512.112 352.086 512.281 362.636C507.623 363.68 503.703 365.258 500.238 367.267C493.395 363.294 485.541 361.334 477.508 361.706C465.673 362.292 454.589 368.036 447.087 377.466C433.703 394.288 435.448 419.208 451.109 435.413L457.513 441.969L445.75 453.875C434.25 465.375 415.75 465.375 404.25 453.875ZM550 275V212.5H612.5H625C631.891 212.5 637.5 218.109 637.5 225V275H550Z" fill="black"/>
</svg>
