<svg width="800" height="800" viewBox="0 0 800 800" fill="none" xmlns="http://www.w3.org/2000/svg">
<path d="M328.498 252.546C309.983 233.829 306.797 203.751 322.851 182.851C342.248 157.599 378.366 155.908 400 177.78C421.636 155.908 457.751 157.598 477.148 182.851C493.203 203.751 490.015 233.829 471.501 252.546L420.72 303.882C409.286 315.441 390.714 315.441 379.28 303.882L328.498 252.546ZM203.55 272.071C208.456 277.102 216.542 277.102 221.448 272.071L252.623 240.102C263.587 228.858 265.728 210.807 255.911 198.551C244.747 184.61 224.628 183.858 212.498 196.298C200.369 183.86 180.248 184.612 169.086 198.551C159.269 210.808 161.409 228.858 172.373 240.102L203.55 272.071ZM578.55 272.071C583.456 277.102 591.542 277.102 596.448 272.071L627.623 240.102C638.587 228.858 640.728 210.807 630.911 198.551C619.747 184.61 599.628 183.858 587.498 196.298C575.369 183.86 555.248 184.612 544.086 198.551C534.269 210.808 536.409 228.858 547.373 240.102L578.55 272.071ZM732.375 637.499H683.25C670 637.499 657.25 632.249 647.875 622.874L637.5 612.499C580.375 651.624 503.5 644.499 454.5 595.499C405.5 546.499 398.375 469.624 437.5 412.499C432.875 400.124 431.25 387.124 432.625 374.499C432.625 374.49 432.628 374.48 432.63 374.471L400 349.946L445.059 338.735L444.889 339.227C454.961 323.091 470.644 310.035 491.001 303.499C511.251 296.999 533.876 298.874 552.751 308.624C592.834 329.287 607.823 374.705 593.144 412.965L724.966 544.787C732.167 551.982 734.292 562.707 730.398 572.105C727.119 580.032 720.055 585.327 711.839 586.833L741.128 616.123C749 623.999 743.5 637.499 732.375 637.499ZM500 362.499C500 355.624 494.375 349.999 487.5 349.999C480.625 349.999 475 355.624 475 362.499C475 369.374 480.625 374.999 487.5 374.999C494.375 374.999 500 369.374 500 362.499ZM707.483 562.493L587.5 442.669L569.458 460.712C559.02 471.162 553.295 485.071 553.344 499.873C553.392 514.691 559.228 528.577 569.775 538.977C576.976 546.088 586.511 550.001 596.631 550.001H619.825L578.662 508.838C573.78 503.955 573.78 496.044 578.662 491.162C583.545 486.279 591.456 486.279 596.339 491.162L658.494 553.196C665.397 559.188 674.176 562.501 683.253 562.501L707.483 562.493ZM354.941 338.735L400 349.946L367.37 374.471C367.37 374.48 367.373 374.49 367.375 374.499C368.75 387.124 367.125 400.124 362.5 412.499C401.625 469.624 394.5 546.499 345.5 595.499C296.5 644.499 219.625 651.624 162.5 612.499L152.125 622.874C142.75 632.249 130 637.499 116.75 637.499H67.6249C56.4999 637.499 50.9999 623.999 58.8749 616.124L88.164 586.835C79.9499 585.327 72.8827 580.032 69.5983 572.107C65.7046 562.707 67.8405 551.983 75.0358 544.788L206.858 412.966C192.178 374.705 207.167 329.287 247.25 308.626C266.125 298.876 288.75 297.001 309 303.501C329.356 310.037 345.041 323.093 355.112 339.229L354.941 338.735ZM246.655 499.865C246.703 485.063 240.978 471.16 230.536 460.71L212.5 442.676L92.7124 562.463L116.748 562.499C125.87 562.499 134.706 559.163 141.617 553.115L142.578 552.202L203.662 491.162C208.545 486.279 216.456 486.279 221.339 491.162C226.222 496.044 226.222 503.955 221.339 508.838L180.123 549.999H203.375C213.483 549.999 223.016 546.087 230.225 538.976C240.772 528.576 246.606 514.683 246.655 499.865ZM325 362.499C325 355.624 319.375 349.999 312.5 349.999C305.625 349.999 300 355.624 300 362.499C300 369.374 305.625 374.999 312.5 374.999C319.375 374.999 325 369.374 325 362.499Z" fill="black"/>
</svg>
