<svg width="800" height="800" viewBox="0 0 800 800" fill="none" xmlns="http://www.w3.org/2000/svg">
<path d="M272.109 337.062L614.703 494.094V618.633C614.702 623.256 613.791 627.833 612.021 632.104C610.25 636.374 607.657 640.255 604.387 643.523C601.117 646.791 597.236 649.383 592.965 651.151C588.693 652.92 584.115 653.829 579.492 653.828H588.281V671.43C588.277 683.1 583.638 694.291 575.383 702.541C567.129 710.791 555.936 715.424 544.266 715.422H244.977C233.306 715.424 222.113 710.791 213.859 702.541C205.605 694.291 200.965 683.1 200.961 671.43V653.828H192.188C187.565 653.829 182.987 652.92 178.715 651.151C174.444 649.383 170.563 646.791 167.293 643.523C164.023 640.255 161.429 636.374 159.659 632.104C157.889 627.833 156.978 623.256 156.977 618.633V284.258L170.391 290.406C155.915 270.786 148.119 247.038 148.149 222.656V196.289C148.147 184.732 150.423 173.288 154.845 162.611C159.267 151.933 165.749 142.231 173.92 134.059C182.092 125.886 191.793 119.404 202.471 114.981C213.148 110.558 224.592 108.281 236.149 108.281H553.125C564.681 108.282 576.124 110.559 586.801 114.983C597.477 119.406 607.177 125.889 615.348 134.061C623.519 142.234 630 151.935 634.422 162.612C638.843 173.289 641.118 184.733 641.117 196.289V222.656C641.12 237.679 638.164 252.556 632.417 266.436C626.67 280.316 618.245 292.928 607.624 303.552C597.002 314.176 584.391 322.604 570.512 328.353C556.633 334.103 541.757 337.062 526.734 337.062H272.109ZM429.844 653.828C427.532 653.829 425.242 653.375 423.106 652.491C420.969 651.606 419.028 650.31 417.393 648.675C415.757 647.041 414.46 645.1 413.575 642.964C412.69 640.828 412.234 638.539 412.234 636.227V548.242C412.234 529.564 404.815 511.651 391.607 498.444C378.4 485.236 360.487 477.816 341.809 477.816C323.131 477.816 305.218 485.236 292.01 498.444C278.803 511.651 271.383 529.564 271.383 548.242V636.234C271.383 638.547 270.927 640.836 270.042 642.972C269.157 645.108 267.86 647.049 266.225 648.683C264.589 650.318 262.648 651.614 260.512 652.498C258.375 653.382 256.086 653.837 253.774 653.836L429.844 653.828Z" fill="white"/>
<path d="M526.086 380.633V596.641H590.086V620.641C590.086 641.055 570.141 660.641 542.086 660.641H318.094C290.039 660.641 270.094 641.055 270.094 620.641V380.633H526.086Z" fill="#FF5A5A"/>
<path d="M579.492 653.828H429.844C425.173 653.828 420.694 651.973 417.392 648.67C414.09 645.368 412.234 640.889 412.234 636.219V548.188C412.234 529.509 404.815 511.596 391.607 498.389C378.4 485.182 360.487 477.762 341.809 477.762C323.131 477.762 305.217 485.182 292.01 498.389C278.803 511.596 271.383 529.509 271.383 548.188V636.219C271.383 640.889 269.528 645.368 266.225 648.67C262.923 651.973 258.444 653.828 253.773 653.828H244.977C240.352 653.828 235.773 652.917 231.5 651.147C227.228 649.377 223.346 646.783 220.076 643.512C216.806 640.242 214.213 636.359 212.444 632.086C210.675 627.814 209.765 623.234 209.766 618.609V337.063H542.266C567.349 337.063 596.891 304.799 630.891 240.273H641.109C656.297 245.07 667.516 258.859 667.516 275.266V407.297C667.516 445.328 645.781 479.031 614.695 499.844V618.594C614.698 623.219 613.79 627.8 612.022 632.074C610.255 636.348 607.662 640.232 604.393 643.504C601.124 646.776 597.242 649.372 592.97 651.143C588.697 652.915 584.117 653.827 579.492 653.828Z" fill="#FFCFCF"/>
<path d="M341.945 533.813L394.758 504.117L412.367 514.016L359.547 543.711L412.367 573.406L394.758 583.305L341.945 553.609L289.125 583.305L271.516 573.406L324.336 543.711L271.516 514.016L289.125 504.117L341.945 533.813Z" fill="#FF6767"/>
<path d="M341.945 597.891L394.758 568.195L412.367 578.094L359.547 607.789L412.367 637.492L394.758 647.391L341.945 617.688L289.125 647.391L271.516 637.492L324.336 607.789L271.516 578.094L289.125 568.195L341.945 597.891Z" fill="#FF6767"/>
<path d="M591.516 117.086C606.385 124.3 618.922 135.554 627.693 149.561C636.464 163.569 641.113 179.762 641.109 196.289V222.656C641.12 241.989 636.227 261.008 626.888 277.935C617.55 294.862 604.07 309.144 587.711 319.445H354.969C328.135 319.445 302.4 308.787 283.424 289.814C264.448 270.841 253.785 245.107 253.781 218.273V205.086C253.781 181.747 263.053 159.364 279.556 142.861C296.059 126.357 318.442 117.086 341.781 117.086H591.516Z" fill="#FFD2D1"/>
<path d="M510.086 228.625H574.086C597.425 228.625 619.808 237.896 636.311 254.4C652.815 270.903 662.086 293.286 662.086 316.625V388.633C662.086 420.459 649.443 450.981 626.939 473.486C604.434 495.99 573.912 508.633 542.086 508.633C510.26 508.633 479.737 495.99 457.233 473.486C434.729 450.981 422.086 420.459 422.086 388.633V316.625C422.086 293.286 431.357 270.903 447.861 254.4C464.364 237.896 486.747 228.625 510.086 228.625Z" fill="#FF7C7C"/>
<path d="M582.086 668.648H430.086C425.172 668.672 420.314 667.61 415.857 665.54C411.401 663.47 407.456 660.442 404.305 656.672C401.866 653.736 400.053 650.332 398.978 646.67C397.903 643.007 397.589 639.163 398.055 635.375V549C397.423 534.061 391.232 519.898 380.695 509.289C375.749 504.033 369.78 499.845 363.155 496.982C356.53 494.119 349.389 492.642 342.172 492.642C334.955 492.642 327.814 494.119 321.189 496.982C314.564 499.845 308.594 504.033 303.648 509.289C293.1 519.934 286.85 534.096 286.094 549.062V635.156C286.639 638.876 286.413 642.668 285.43 646.297C284.448 649.925 282.73 653.313 280.383 656.25C274.313 663.984 264.484 668.609 254.094 668.609H193.219C168.094 668.609 145.219 645.727 145.219 620.609V268.633H177.25V620.641C177.25 628.117 185.773 636.641 193.25 636.641H254.125V547.844C255.197 524.812 264.802 503.003 281.07 486.664C297.164 470.437 318.939 461.107 341.789 460.648H342.414C365.334 461.08 387.187 470.409 403.352 486.664C419.643 503.017 429.181 524.903 430.07 547.969V636.641H582.086C589.563 636.641 598.086 628.117 598.086 620.641V492.641H630.117V620.641C630.086 645.766 607.211 668.648 582.086 668.648Z" fill="black"/>
<path d="M542.086 732.648H238.094C223.43 732.648 208.945 725.656 198.344 713.469C187.867 701.414 182.094 685.5 182.094 668.641V652.641H214.125V668.641C214.125 687.5 226.773 700.672 238.125 700.672H542.086C553.437 700.672 566.086 687.531 566.086 668.641V652.641H598.117V668.641C598.117 685.492 592.344 701.414 581.867 713.469C571.242 725.656 556.75 732.648 542.086 732.648Z" fill="black"/>
<path d="M341.945 529.906L394.758 500.211L412.367 510.109L359.547 539.805L412.367 569.5L394.758 579.398L341.945 549.703L289.125 579.398L271.516 569.5L324.336 539.805L271.516 510.109L289.125 500.211L341.945 529.906Z" fill="black"/>
<path d="M341.945 593.984L394.758 564.289L412.367 574.188L359.547 603.883L412.367 633.586L401.562 646.875L341.945 613.781L282.031 647.656L271.516 633.586L324.336 603.883L271.516 574.188L289.125 564.289L341.945 593.984Z" fill="black"/>
<path d="M542.086 532.641H518.086C513.838 532.641 509.765 530.954 506.761 527.95C503.758 524.947 502.07 520.873 502.07 516.625C502.07 512.378 503.758 508.304 506.761 505.301C509.765 502.297 513.838 500.61 518.086 500.61H542.086C570.941 500.472 598.816 490.127 620.773 471.407C642.258 452.875 654.094 429.164 654.094 404.633V268.633C654.094 263.946 652.992 259.766 650.969 256.961C649.805 255.328 647.672 253.094 642.594 252.539C640.505 252.31 638.482 251.671 636.64 250.659C634.798 249.647 633.173 248.283 631.859 246.643C630.544 245.004 629.566 243.121 628.979 241.103C628.392 239.086 628.208 236.972 628.438 234.883C628.667 232.794 629.306 230.771 630.318 228.929C631.33 227.087 632.694 225.463 634.334 224.148C635.973 222.834 637.856 221.855 639.873 221.268C641.891 220.681 644.005 220.497 646.094 220.727C670.031 223.328 686.109 242.602 686.109 268.633V404.633C686.063 422.195 681.849 439.495 673.812 455.11C665.868 470.595 654.955 484.367 641.695 495.641C613.905 519.353 578.617 532.461 542.086 532.641Z" fill="black"/>
<path d="M562.289 425.055H504.687C480.609 425.063 457.316 416.489 438.989 400.873C420.661 385.256 408.5 363.618 404.687 339.844C404.294 337.547 404.36 335.196 404.883 332.925C405.405 330.655 406.373 328.511 407.73 326.617C409.087 324.723 410.807 323.118 412.789 321.894C414.771 320.67 416.977 319.852 419.278 319.487C421.579 319.122 423.93 319.217 426.194 319.768C428.457 320.318 430.589 321.312 432.466 322.693C434.343 324.073 435.927 325.812 437.126 327.81C438.326 329.807 439.116 332.023 439.453 334.328C441.954 349.825 449.894 363.924 461.848 374.097C473.803 384.271 488.99 389.853 504.687 389.844H562.312C566.981 389.844 571.458 391.698 574.759 394.999C578.06 398.3 579.914 402.777 579.914 407.445C579.914 412.114 578.06 416.591 574.759 419.891C571.458 423.192 566.981 425.047 562.312 425.047L562.289 425.055Z" fill="black"/>
<path d="M530.086 348.633H266.094C193.305 348.633 134.062 289.414 134.062 216.602V188.625C134.062 131.281 180.719 84.625 238.062 84.625H558.086C615.43 84.625 662.086 131.281 662.086 188.625V216.625C662.086 289.414 602.867 348.633 530.086 348.633ZM238.094 116.602C219.005 116.624 200.705 124.217 187.207 137.715C173.709 151.213 166.116 169.513 166.094 188.602V216.602C166.125 243.114 176.67 268.531 195.417 287.278C214.164 306.025 239.582 316.571 266.094 316.602H530.078C556.59 316.571 582.008 306.025 600.755 287.278C619.501 268.531 630.047 243.114 630.078 216.602V188.625C630.055 169.536 622.462 151.236 608.965 137.738C595.467 124.241 577.167 116.648 558.078 116.625L238.094 116.602Z" fill="black"/>
</svg>
