<svg width="800" height="800" viewBox="0 0 800 800" fill="none" xmlns="http://www.w3.org/2000/svg">
<path d="M518.897 683.801C427.68 646.146 345.833 591.17 277.331 522.668C208.83 454.166 153.853 372.32 116.198 281.102C106.564 257.856 116.377 231.074 138.384 218.788L180.898 195.188L213.956 176.802C238.881 163.013 270.259 172.648 282.988 198.105L314.189 260.596C323.911 279.865 320.111 303.11 304.908 318.313L267.078 356.143C291.384 390.349 318.52 422.434 348.042 451.956C377.564 481.477 409.648 508.612 443.855 532.92L481.684 495.09C496.888 479.887 520.133 476.087 539.402 485.809L601.892 517.01C627.348 529.738 636.983 561.116 623.195 586.041L604.809 619.099L581.209 661.613C568.923 683.623 542.142 693.435 518.897 683.801ZM562.817 399.963C569.702 399.438 574.853 393.432 574.328 386.548C567.834 301.331 498.669 232.165 413.452 225.671C406.328 225.049 400.561 230.298 400.036 237.182C399.511 244.066 404.669 250.073 411.547 250.598C484.569 256.165 543.834 315.429 549.402 388.452C549.902 395.007 555.383 400.001 561.853 400.001C562.17 399.999 562.488 399.987 562.817 399.963ZM500.684 399.902C507.545 399.048 512.391 392.798 511.536 385.949C505.139 334.948 465.052 294.86 414.05 288.463C407.245 287.646 400.952 292.468 400.097 299.315C399.236 306.163 404.095 312.413 410.942 313.268C450.584 318.249 481.748 349.413 486.73 389.049C487.523 395.373 492.906 399.999 499.12 399.999C499.634 399.999 500.159 399.963 500.684 399.902ZM439.392 399.279C445.886 396.96 449.28 389.805 446.973 383.299C441.908 369.115 430.872 358.079 416.688 353.026C410.194 350.718 403.041 354.101 400.727 360.618C398.408 367.112 401.806 374.265 408.308 376.585C415.381 379.099 420.9 384.605 423.414 391.698C425.245 396.812 430.055 399.999 435.194 399.999C436.584 399.999 438 399.768 439.392 399.279ZM677.15 132.849C657.752 107.598 621.636 105.909 600 127.78C578.364 105.909 542.248 107.598 522.85 132.851C506.795 153.751 509.983 183.829 528.497 202.546L579.278 253.884C590.713 265.443 609.284 265.443 620.719 253.884L671.5 202.546C690.017 183.829 693.205 153.749 677.15 132.849Z" fill="black"/>
</svg>
