<svg width="800" height="800" viewBox="0 0 800 800" fill="none" xmlns="http://www.w3.org/2000/svg">
<path d="M637.5 112.5H212.5C184.875 112.5 162.5 134.875 162.5 162.5V325C128.039 325 100 353.039 100 387.5V627.123C100 642.602 108.881 655.895 123.181 661.816C127.955 663.794 132.886 664.77 137.738 664.77C147.375 664.77 156.714 660.961 163.964 653.711L217.677 600H437.5C471.961 600 500 571.961 500 537.5V462.5H562.5L644.875 544.875C660.625 560.625 687.5 549.375 687.5 527.125V162.5C687.5 134.875 665.125 112.5 637.5 112.5ZM475 537.5C475 558.178 458.178 575 437.5 575H207.325L146.289 636.036C140.839 641.492 134.552 639.478 132.745 638.722C130.933 637.977 125 634.912 125 627.125V387.5C125 366.822 141.822 350 162.5 350H437.5C457.192 350 475 365.983 475 387.5V537.5ZM497.5 301.375L466.781 332.575C457.692 327.842 449.355 325 437.5 325H375.798L352.5 301.375C332.5 281 332.5 248.125 352.5 227.75C372.5 207.375 405 207.375 425 227.75C445 207.375 477.5 207.375 497.5 227.75C517.5 248.125 517.5 281 497.5 301.375ZM400 525C400 531.909 394.403 537.5 387.5 537.5H212.5C205.597 537.5 200 531.909 200 525C200 518.091 205.597 512.5 212.5 512.5H387.5C394.403 512.5 400 518.091 400 525ZM400 400C400 406.909 394.403 412.5 387.5 412.5H212.5C205.597 412.5 200 406.909 200 400C200 393.091 205.597 387.5 212.5 387.5H387.5C394.403 387.5 400 393.091 400 400ZM200 462.5C200 455.591 205.597 450 212.5 450H350C356.903 450 362.5 455.591 362.5 462.5C362.5 469.409 356.903 475 350 475H212.5C205.597 475 200 469.409 200 462.5Z" fill="black"/>
</svg>
