<svg width="800" height="800" viewBox="0 0 800 800" fill="none" xmlns="http://www.w3.org/2000/svg">
<path d="M250 462.499V474.999C250 481.902 244.403 487.499 237.5 487.499H200.384L237.128 634.473C238.8 641.162 234.73 647.949 228.034 649.621C227.015 649.877 225.995 649.999 224.989 649.999C219.392 649.999 214.295 646.215 212.873 640.526C211.945 636.81 175.23 491.329 175.236 487.498H137.347C137.348 491.369 88.0889 637.765 86.8592 641.452C85.1139 646.691 80.2374 649.999 74.9999 649.999C73.6936 649.999 72.3577 649.791 71.0452 649.352C64.4967 647.179 60.9561 640.099 63.1405 633.544L111.822 487.499H74.9999C68.0967 487.499 62.4999 481.902 62.4999 474.999V447.916V437.499V362.499V339.582V249.999C62.4999 243.096 68.0967 237.499 74.9999 237.499H87.4999C108.211 237.499 125 254.288 125 274.999V337.499C125 358.21 108.211 374.999 87.4999 374.999V424.999H212.5C233.211 424.999 250 441.788 250 462.499ZM379.28 303.882C390.714 315.441 409.286 315.441 420.72 303.882L471.501 252.546C490.017 233.829 493.203 203.749 477.148 182.851C457.75 157.599 421.634 155.908 399.998 177.78C378.362 155.908 342.247 157.598 322.85 182.851C306.795 203.751 309.983 233.829 328.497 252.546L379.28 303.882ZM725 237.499H712.5C691.789 237.499 675 254.288 675 274.999V337.499C675 358.21 691.789 374.999 712.5 374.999V424.999H587.5C566.789 424.999 550 441.788 550 462.499V474.999C550 481.902 555.597 487.499 562.5 487.499H599.615L562.872 634.473C561.2 641.162 565.27 647.949 571.965 649.621C572.984 649.877 574.005 649.999 575.011 649.999C580.608 649.999 585.705 646.215 587.126 640.526C588.056 636.81 624.77 491.329 624.764 487.498H662.651C662.65 491.369 711.909 637.765 713.139 641.452C714.884 646.69 719.761 649.998 724.998 649.998C726.305 649.998 727.64 649.79 728.953 649.351C735.501 647.177 739.042 640.098 736.858 633.543L688.178 487.499H725C731.903 487.499 737.5 481.902 737.5 474.999V441.666V437.499V362.499V358.332V249.999C737.5 243.096 731.903 237.499 725 237.499ZM433.319 437.499C420.812 437.499 415.215 441.699 407.476 447.496C398.565 454.187 387.469 462.499 366.637 462.499C345.812 462.499 334.722 454.187 325.817 447.496C318.078 441.699 312.494 437.499 300 437.499V474.999C300 481.902 305.597 487.499 312.5 487.499H378.125V587.499H330.714C316.908 587.499 305.714 598.691 305.714 612.499V624.999C305.714 631.902 311.311 637.499 318.214 637.499H481.786C488.689 637.499 494.286 631.902 494.286 624.999V612.499C494.286 598.691 483.094 587.499 469.286 587.499H421.875V487.499H487.5C494.403 487.499 500 481.902 500 474.999V462.499C479.162 462.499 468.072 454.187 459.155 447.496C451.416 441.699 445.819 437.499 433.319 437.499ZM450 362.499H350C322.386 362.499 300 384.885 300 412.499C320.825 412.499 331.915 420.812 340.82 427.502C348.559 433.301 354.144 437.499 366.637 437.499C379.137 437.499 384.734 433.299 392.473 427.502C401.39 420.813 412.481 412.499 433.319 412.499C454.15 412.499 465.247 420.812 474.158 427.502C481.897 433.301 487.494 437.499 500 437.499V412.499C500 384.885 477.614 362.499 450 362.499Z" fill="black"/>
</svg>
