<svg width="800" height="800" viewBox="0 0 800 800" fill="none" xmlns="http://www.w3.org/2000/svg">
<path d="M300 225C300 211.194 311.194 200 325 200C338.806 200 350 211.194 350 225C350 238.806 338.806 250 325 250C311.194 250 300 238.806 300 225ZM475 250C488.806 250 500 238.806 500 225C500 211.194 488.806 200 475 200C461.194 200 450 211.194 450 225C450 238.806 461.194 250 475 250ZM550 562.5V587.5H562.5C596.961 587.5 625 615.539 625 650V712.5C625 733.178 608.178 750 587.5 750H512.5C491.822 750 475 733.178 475 712.5H325C325 733.178 308.178 750 287.5 750H212.5C191.822 750 175 733.178 175 712.5V650C175 615.539 203.039 587.5 237.5 587.5H250V562.5C201.758 562.5 162.5 523.248 162.5 475C162.5 430.564 195.827 393.842 238.775 388.303C217.773 356.788 206.25 319.688 206.25 281.25C206.25 261.152 208.938 245.922 213.434 229.392C183.369 215.6 162.5 185.316 162.5 150C162.5 101.625 201.625 62.5 250 62.5C281.152 62.5 308.381 78.6562 323.839 103.105C372.952 82.1156 428.473 82.6687 476.159 103.105C491.619 78.6562 518.848 62.5 550 62.5C598.375 62.5 637.5 101.625 637.5 150C637.5 185.317 616.63 215.603 586.561 229.394C591.133 246.164 593.75 261.434 593.75 281.25C593.75 319.688 582.227 356.788 561.225 388.303C604.173 393.842 637.5 430.564 637.5 475C637.5 523.248 598.242 562.5 550 562.5ZM550 412.5C515.539 412.5 487.5 440.539 487.5 475C487.5 508.75 514.942 537.5 550 537.5C584.461 537.5 612.5 509.461 612.5 475C612.5 440.539 584.461 412.5 550 412.5ZM528.831 136.88C545.119 151.519 550.855 158.942 560.277 172.717C568.925 168.772 575 160.081 575 150C575 136.25 563.75 125 550 125C541.07 125 533.256 129.786 528.831 136.88ZM239.725 172.717C249.153 158.925 255.059 151.347 271.164 136.87C266.737 129.781 258.927 125 250 125C236.25 125 225 136.25 225 150C225 160.083 231.077 168.773 239.725 172.717ZM231.25 281.25C231.25 321.4 245.562 359.925 271.453 390.272C289.895 394.948 306.05 405.408 317.747 419.714C321.092 416.242 324.811 413.233 328.792 410.619C326.355 403.248 325 395.539 325 387.5C325 363.636 336.548 340.98 355.884 326.892C355.941 326.852 356.008 326.836 356.064 326.795C381.67 308.111 418.333 308.112 443.939 326.797C443.995 326.836 444.061 326.852 444.117 326.892C463.452 340.98 475 363.636 475 387.5C475 395.539 473.644 403.248 471.206 410.62C475.181 413.231 478.902 416.241 482.252 419.716C493.948 405.409 510.103 394.947 528.545 390.272C554.436 359.925 568.75 321.4 568.75 281.25C568.75 266.009 566.761 251.208 562.842 237.256C549.087 185.466 511.487 145.041 465.406 125.647C424.048 108.191 375.941 108.197 334.608 125.641C272.831 151.642 231.25 212.492 231.25 281.25ZM423.825 343.555C409.345 335.608 390.653 335.608 376.175 343.555C380.087 368.917 419.933 368.712 423.825 343.555ZM250 537.5C284.831 537.5 312.5 509.106 312.5 475C312.5 440.539 284.461 412.5 250 412.5C215.539 412.5 187.5 440.539 187.5 475C187.5 509.461 215.539 537.5 250 537.5ZM300 650C300 629.322 283.178 612.5 262.5 612.5H237.5C216.822 612.5 200 629.322 200 650V712.5C200 719.391 205.603 725 212.5 725H287.5C294.397 725 300 719.391 300 712.5V650ZM420.75 553.875L468.422 505.616C464.794 495.859 462.5 488.553 462.5 475C462.5 463.622 464.748 452.777 468.719 442.797C463.764 435.317 458.064 430.739 450.781 427.875C450.764 427.869 450.753 427.852 450.736 427.845C450.716 427.838 450.692 427.841 450.672 427.833C436.305 422.005 419.898 425.434 408.875 436.548C406.531 438.917 403.333 440.247 400 440.247C396.667 440.247 393.469 438.916 391.125 436.548C380.102 425.434 363.708 422.009 349.328 427.833C349.308 427.841 349.284 427.838 349.264 427.845C349.247 427.852 349.236 427.869 349.219 427.875C341.745 430.816 336.13 435.473 331.283 442.802C335.252 452.781 337.5 463.623 337.5 475C337.5 488.305 335.253 495.705 331.594 505.631L379.25 553.875C390.75 565.375 409.25 565.375 420.75 553.875ZM562.5 612.5H537.5C516.822 612.5 500 629.322 500 650V712.5C500 719.391 505.603 725 512.5 725H587.5C594.397 725 600 719.391 600 712.5V650C600 629.322 583.178 612.5 562.5 612.5Z" fill="black"/>
</svg>
