<svg width="800" height="800" viewBox="0 0 800 800" fill="none" xmlns="http://www.w3.org/2000/svg">
<path d="M152.859 178.273V178.125H214.477V178.562C217.388 178.271 220.323 178.125 223.281 178.125C301.07 178.125 364.133 280.555 364.133 406.898C364.133 533.242 301.07 635.695 223.289 635.695C220.331 635.695 217.396 635.549 214.484 635.258V635.695H152.859V635.563C84.375 631.406 29.6172 530.633 29.6172 406.922C29.6172 283.211 84.375 182.43 152.859 178.273ZM581.25 634.297C576.415 635.226 571.502 635.694 566.578 635.695C507.828 635.695 458.039 569.219 440.898 477.313L439.336 345.328C454.859 248.898 505.93 178.141 566.539 178.141C571.476 178.139 576.402 178.608 581.25 179.539V178.125H639.938C712.234 188.594 769.047 286.969 769.047 406.898C769.047 526.828 712.258 625.227 639.961 634.914L581.273 635.695L581.25 634.297Z" fill="white"/>
<path d="M614.187 635.258C680.969 627.883 733.859 528.469 733.859 406.922C733.859 280.57 676.711 178.125 606.25 178.125C597.727 178.14 589.27 179.622 581.25 182.508V178.125H639.937C712.234 188.594 769.047 286.969 769.047 406.898C769.047 526.828 712.258 625.227 639.961 634.914L614.187 635.258ZM600.164 635.445L581.266 635.695V631.328C587.364 633.511 593.718 634.895 600.172 635.445H600.164Z" fill="#7F7F7F"/>
<path d="M628.234 204.539C670.109 242.898 698.648 319.133 698.648 406.883C698.648 533.234 639.531 635.656 566.617 635.656C536.453 608.031 513.219 560.75 502.555 503.672L500.992 371.688C516.516 275.258 567.586 204.5 628.195 204.5L628.234 204.539Z" fill="#E4E4E4"/>
<path d="M358.969 345.313H518.188C526.854 345.312 535.435 347.019 543.442 350.336C551.448 353.652 558.723 358.513 564.851 364.641C570.979 370.769 575.84 378.044 579.156 386.051C582.473 394.057 584.18 402.638 584.18 411.305C584.18 419.971 582.473 428.552 579.156 436.559C575.84 444.565 570.979 451.84 564.851 457.968C558.723 464.096 551.448 468.957 543.442 472.274C535.435 475.59 526.854 477.297 518.188 477.297H357.344" fill="#C0C0C0"/>
<path d="M417.508 345.312C430.789 386.016 439.383 430.469 442.281 477.297H357.344L358.969 345.312H417.5H417.508Z" fill="#8D8D8D"/>
<path d="M214.484 178.125V178.562C217.396 178.271 220.331 178.125 223.289 178.125C301.078 178.125 364.141 280.555 364.141 406.898C364.141 533.242 301.07 635.695 223.289 635.695C220.331 635.695 217.396 635.549 214.484 635.258V635.695H152.859V635.563C154.323 635.651 155.789 635.695 157.258 635.695V626.883C168.119 632.6 180.195 635.623 192.469 635.695C262.961 635.695 320.109 533.266 320.109 406.922C320.109 280.578 262.969 178.125 192.477 178.125C180.203 178.198 168.127 181.22 157.266 186.937V178.125" fill="#7F7F7F"/>
<path d="M206.555 195.828C252.578 230.391 284.906 311.891 284.906 406.922C284.906 531.141 229.656 632.266 160.789 635.617C114.766 601.047 82.4375 519.531 82.4375 424.516C82.4375 300.281 137.688 199.172 206.555 195.828Z" fill="#E4E4E4"/>
<path d="M117.648 415.719C117.648 424.963 118.559 434.116 120.329 442.656C122.098 451.196 124.692 458.956 127.961 465.492C131.231 472.029 135.113 477.214 139.385 480.751C143.657 484.289 148.235 486.109 152.859 486.109C157.483 486.109 162.062 484.289 166.334 480.751C170.606 477.214 174.488 472.029 177.757 465.492C181.027 458.956 183.621 451.196 185.39 442.656C187.16 434.116 188.07 424.963 188.07 415.719C188.07 406.475 187.16 397.322 185.39 388.781C183.621 380.241 181.027 372.481 177.757 365.945C174.488 359.409 170.606 354.224 166.334 350.686C162.062 347.149 157.483 345.328 152.859 345.328C148.235 345.328 143.657 347.149 139.385 350.686C135.113 354.224 131.231 359.409 127.961 365.945C124.692 372.481 122.098 380.241 120.329 388.781C118.559 397.322 117.648 406.475 117.648 415.719Z" fill="#909090"/>
<path d="M565.273 651.914V634.297H581.25L581.055 619.695L638.734 618.914C668.422 614.555 696.453 591.656 717.719 554.32C740.516 514.313 753.062 461.953 753.062 406.898C753.062 351.844 740.516 299.508 717.719 259.375C696.484 222.008 668.5 198.883 638.75 194.125H581.25V179.539H565.273V162.141H641.117L642.258 162.305C723.68 174.094 785.078 279.258 785.078 406.914C785.078 467.43 771.016 525.414 745.539 570.195C718.977 616.781 682.258 645.406 642.094 650.789L641.141 650.914L565.273 651.914Z" fill="black"/>
<path d="M566.602 651.695C533.008 651.695 501.523 634.102 475.547 600.812C451.594 570.117 434.18 528.422 425.195 480.242L456.656 474.375C464.586 516.922 480.258 554.844 500.773 581.125C514.5 598.719 537.07 619.695 566.602 619.695C595.914 619.695 624.156 598.742 646.117 560.687C669.672 519.867 682.648 465.258 682.648 406.914C682.648 348.57 669.672 293.961 646.094 253.125C624.133 215.07 595.891 194.117 566.578 194.117C536.023 194.117 512.898 216.43 498.875 235.141C477.883 263.156 462.359 303.187 455.172 347.844L423.578 342.758C431.687 292.359 448.875 248.508 473.266 215.953C485.813 199.211 499.883 186.094 515.078 176.961C531.484 167.109 548.805 162.117 566.578 162.117C607.805 162.117 645.891 188.758 673.805 237.117C700.125 282.719 714.625 343.016 714.625 406.883C714.625 470.75 700.125 531.047 673.805 576.648C645.914 625.055 607.812 651.695 566.602 651.695Z" fill="black"/>
<path d="M518.188 494.914H357.344V459.711H518.188C531.023 459.711 543.332 454.612 552.408 445.537C561.483 436.461 566.582 424.151 566.582 411.316C566.582 398.481 561.483 386.172 552.408 377.096C543.332 368.021 531.023 362.922 518.188 362.922H358.969V327.727H518.188C529.165 327.727 540.035 329.889 550.177 334.09C560.319 338.291 569.535 344.448 577.297 352.211C585.06 359.973 591.217 369.188 595.418 379.33C599.619 389.472 601.781 400.343 601.781 411.32C601.781 422.298 599.619 433.168 595.418 443.31C591.217 453.452 585.06 462.668 577.297 470.43C569.535 478.192 560.319 484.35 550.177 488.551C540.035 492.752 529.165 494.914 518.188 494.914Z" fill="black"/>
<path d="M230.469 651.742L160.5 651.562H157.266V651.703C155.484 651.703 153.68 651.648 151.898 651.539L152.836 619.57H160.523L198.492 619.672V617.578L216.086 619.336C218.469 619.578 220.898 619.695 223.297 619.695C255.156 619.695 285.688 598.602 309.234 560.32C334.305 519.602 348.109 465.125 348.109 406.938C348.109 348.75 334.305 294.281 309.234 253.555C285.656 215.273 255.125 194.18 223.297 194.18C220.898 194.18 218.477 194.305 216.094 194.539L198.5 196.305V194.141H152.859V162.109H230.469V162.352C250.203 163.695 269.242 170.594 287.156 182.898C305.781 195.695 322.375 213.805 336.492 236.727C364.617 282.422 380.117 342.852 380.117 406.883C380.117 470.914 364.625 531.344 336.492 577.039C322.383 599.961 305.781 618.07 287.156 630.867C269.242 643.172 250.203 650.07 230.469 651.414V651.742Z" fill="black"/>
<path d="M157.266 651.695C117.109 651.695 80.0937 624.984 53.0391 576.484C27.625 530.93 13.625 470.711 13.625 406.953C13.625 343.195 27.625 282.945 53.0391 237.422C80.1016 188.922 117.102 162.211 157.266 162.211C197.43 162.211 234.437 188.922 261.492 237.422C286.906 282.977 300.906 343.195 300.906 406.953C300.906 470.711 286.906 530.969 261.492 576.484C234.43 625 197.414 651.695 157.266 651.695ZM157.266 194.141C129.227 194.141 102.141 215.023 80.9766 252.945C58.1719 293.812 45.6172 348.492 45.6172 406.922C45.6172 465.352 58.1719 520.031 80.9766 560.898C102.133 598.82 129.227 619.703 157.266 619.703C185.305 619.703 212.391 598.82 233.555 560.898C256.359 520.031 268.914 465.352 268.914 406.922C268.914 348.492 256.359 293.812 233.555 252.945C212.391 215.023 185.297 194.141 157.266 194.141Z" fill="black"/>
<path d="M152.859 502.109C137.078 502.109 123.172 491.648 113.648 472.648C105.906 457.172 101.641 436.953 101.641 415.719C101.641 394.484 105.906 374.258 113.648 358.789C123.148 339.789 137.086 329.328 152.859 329.328C168.633 329.328 182.547 339.789 192.07 358.789C199.812 374.266 204.078 394.484 204.078 415.719C204.078 436.953 199.812 457.18 192.07 472.656C182.57 491.648 168.641 502.109 152.859 502.109ZM152.859 361.32C151.039 361.32 146.562 364.516 142.273 373.094C136.805 384.031 133.68 399.586 133.68 415.711C133.68 431.836 136.805 447.375 142.273 458.328C146.562 466.922 151.047 470.102 152.859 470.102C154.672 470.102 159.156 466.906 163.445 458.328C168.914 447.391 172.039 431.836 172.039 415.711C172.039 399.586 168.914 384.047 163.445 373.094C159.156 364.523 154.687 361.328 152.859 361.328V361.32Z" fill="black"/>
</svg>
