<svg width="800" height="800" viewBox="0 0 800 800" fill="none" xmlns="http://www.w3.org/2000/svg">
<path d="M161.836 445.93L54.9142 533.555C53.4622 534.756 51.663 535.46 49.7812 535.562C47.8994 535.665 46.0344 535.161 44.4603 534.125C42.8862 533.089 41.6862 531.575 41.0366 529.805C40.387 528.036 40.3222 526.106 40.8517 524.297C63.6799 445.781 75.5835 399.466 76.5627 385.352C77.5523 371.393 71.9585 331.289 59.7814 265.039C59.451 263.228 59.6967 261.358 60.4841 259.694C61.2716 258.029 62.561 256.653 64.1711 255.76C65.7811 254.867 67.6308 254.5 69.4598 254.713C71.2888 254.926 73.0052 255.706 74.3674 256.945L173.266 347C253.11 237.625 353.987 182.938 475.899 182.938C643.633 182.938 744.391 292.93 744.391 402.914C744.391 512.898 643.61 622.891 475.899 622.891C342.008 622.917 237.32 563.93 161.836 445.93Z" fill="white"/>
<path d="M379.984 513.203C422.172 513.203 448.422 501.161 458.734 477.078C474.203 440.953 434.156 429.312 397.312 429.312C379.984 429.312 362.156 452.875 337.937 471.25C317.333 486.849 331.349 500.833 379.984 513.203Z" fill="white"/>
<path d="M117.414 482.336C122.284 463.102 124.938 450.417 125.375 444.281C125.984 435.656 125.984 406.247 125.375 356.055L214.992 408.734C289.003 307.37 382.51 256.688 495.516 256.688C636.578 256.688 726.563 340.625 742.008 432.32C725.875 531.695 628.664 622.945 475.899 622.945C368.414 622.945 279.75 584.924 209.906 508.883C208.047 506.112 206.208 503.302 204.391 500.453L203.219 501.414C188.054 483.982 174.213 465.441 161.813 445.945L117.414 482.336Z" fill="#D2E4FF"/>
<path d="M592.602 203.359C689.234 240.187 744.391 321.57 744.391 402.945C744.391 512.938 643.609 622.922 475.898 622.922C436.154 622.922 398.982 617.714 364.383 607.297C474.023 589.469 528.844 516.534 528.844 388.492C528.849 307.94 550.102 246.229 592.602 203.359Z" fill="#648AFF"/>
<path d="M611.039 604.867L597.031 614.508C550.781 559.477 524.32 483.734 524.32 402.93C524.32 322.125 550.781 246.375 597.031 191.344L640.625 222.984C599.812 271.547 559.531 330.242 559.531 402.93C559.531 475.617 570.25 556.305 611.039 604.867Z" fill="white"/>
<path d="M379.984 513.203C422.172 513.203 448.422 501.161 458.734 477.078C474.203 440.953 434.156 429.312 397.312 429.312C379.984 429.312 362.156 452.875 337.937 471.25C317.333 486.849 331.349 500.833 379.984 513.203Z" fill="white"/>
<path d="M375.453 512.023C352.786 502.247 349.073 491.59 364.312 480.054C388.586 461.679 406.39 438.117 423.687 438.117C431.891 438.083 440.085 438.712 448.187 439.999C460.476 447.445 466.312 459.296 458.695 477.085C448.383 501.169 422.133 513.21 379.945 513.21C378.424 512.814 376.927 512.419 375.453 512.023Z" fill="#D2E4FF"/>
<path d="M444.875 438.148C459.399 445.422 467.016 457.742 458.743 477.078C449.68 498.245 428.305 510.109 394.617 512.672C370.576 502.719 366.347 491.846 381.93 480.055C406.203 461.68 424.008 438.117 441.305 438.117C442.498 438.117 443.688 438.128 444.875 438.148Z" fill="#648AFF"/>
<path d="M265.18 261.445L242.297 254.203C254.57 215.453 272.93 185.789 296.859 166.039C321.187 145.961 351.547 135.781 387.094 135.781C429.93 135.781 465.508 148.742 492.844 174.312L515.789 195.766L484.383 195.07C481.586 195.008 478.734 194.977 475.898 194.977V191.32C453.242 170.391 423.344 159.781 387.094 159.781C326.727 159.773 286.844 193.031 265.18 261.445Z" fill="black"/>
<path d="M475.898 638.93C406.476 638.93 343.633 623.352 289.109 592.617C239.25 564.516 195.312 523.148 158.297 469.531L65.0546 545.93C60.9597 549.282 55.8998 551.238 50.6144 551.509C45.329 551.781 40.0953 550.355 35.6781 547.44C31.2609 544.525 27.8919 540.273 26.0635 535.307C24.2351 530.34 24.0431 524.919 25.5155 519.836C53.3983 423.844 59.9999 393.109 60.6327 384.219C61.1327 377.187 59.6483 352.648 44.078 267.891C43.4843 264.685 43.5287 261.393 44.2086 258.205C44.8885 255.016 46.1905 251.992 48.0402 249.308C49.8899 246.623 52.2509 244.329 54.9882 242.557C57.7254 240.786 60.7851 239.572 63.9921 238.984C67.7515 238.314 71.6147 238.515 75.284 239.573C78.9534 240.631 82.3308 242.517 85.1562 245.086L171.094 323.352C209.68 273.945 253.383 235.852 301.203 209.906C353.773 181.414 412.555 166.938 475.922 166.938C518.109 166.938 557.906 173.625 594.109 186.805C628.125 199.219 658.258 217.039 683.703 239.781C732.437 283.328 760.391 342.805 760.391 402.945C760.391 463.086 732.437 522.563 683.703 566.109C658.25 588.852 628.101 606.664 594.086 619.055C557.883 632.242 518.117 638.93 475.898 638.93ZM165.625 422.148L175.328 437.313C211.469 493.805 255.016 536.68 304.836 564.742C354.508 592.734 412.07 606.93 475.93 606.93C514.406 606.93 550.484 600.898 583.172 588.961C613.351 577.969 640.016 562.25 662.414 542.227C704.359 504.727 728.422 453.945 728.422 402.922C728.422 351.898 704.359 301.102 662.414 263.617C640.008 243.594 613.351 227.875 583.172 216.883C550.484 204.977 514.422 198.914 475.93 198.914C417.953 198.914 364.297 212.062 316.461 237.977C268.359 264.047 224.539 303.875 186.219 356.367L175.703 370.773L79.328 283.047C92.3983 356.766 93.1874 377.43 92.5468 386.477C91.9062 395.523 87.9687 418.086 62.6562 506.516L165.625 422.148Z" fill="black"/>
<path d="M580.656 613.484C558 586.469 540.133 554.695 527.664 519.047C501.863 443.785 501.863 362.074 527.664 286.812C540.164 251.164 557.961 219.391 580.656 192.375L605.164 212.953C584.969 237 569.063 265.398 557.875 297.383C534.467 365.803 534.467 440.064 557.875 508.484C569.063 540.461 584.977 568.867 605.164 592.914L580.656 613.484ZM392.031 529.688C387.714 529.688 383.263 529.5 378.68 529.125L377.344 529.016L376.047 528.687C335.422 518.359 316.672 506.711 313.227 489.742C311.664 481.875 312.953 470.063 328.258 458.492C335.539 452.977 342.321 446.852 348.883 440.922C364.594 426.727 379.43 413.312 397.321 413.312C418.414 413.312 456.086 416.844 471.688 440.484C477.258 448.93 482.086 463.219 473.453 483.375C466.731 499.249 454.533 512.183 439.078 519.82C425.969 526.398 410.156 529.688 392.031 529.688ZM382.61 497.336C414.805 499.68 435.461 490.75 444.024 470.773C447.688 462.227 445.633 459.117 444.961 458.102C440.899 451.938 424.25 445.313 397.305 445.313C391.727 445.313 379.86 456.039 370.321 464.664C363.586 470.75 355.946 477.656 347.555 484.008L347.149 484.32C351.492 487.094 361.289 491.844 382.61 497.359V497.336Z" fill="black"/>
<path d="M612.352 385.352C612.352 392.353 615.134 399.067 620.086 404.018C625.038 408.969 631.754 411.75 638.758 411.75C645.761 411.75 652.478 408.969 657.43 404.018C662.382 399.067 665.164 392.353 665.164 385.352C665.164 378.35 662.382 371.636 657.43 366.685C652.478 361.734 645.761 358.953 638.758 358.953C631.754 358.953 625.038 361.734 620.086 366.685C615.134 371.636 612.352 378.35 612.352 385.352Z" fill="white"/>
<path d="M638.758 419.75C631.959 419.75 625.313 417.734 619.66 413.957C614.007 410.18 609.601 404.811 606.999 398.53C604.398 392.249 603.717 385.337 605.043 378.669C606.37 372.001 609.644 365.876 614.451 361.068C619.258 356.261 625.383 352.987 632.052 351.661C638.72 350.334 645.631 351.015 651.913 353.617C658.194 356.218 663.562 360.624 667.34 366.277C671.117 371.93 673.133 378.576 673.133 385.375C673.114 394.486 669.487 403.219 663.044 409.661C656.602 416.104 647.869 419.731 638.758 419.75ZM638.758 366.953C635.119 366.955 631.563 368.035 628.538 370.058C625.514 372.08 623.157 374.954 621.765 378.316C620.374 381.678 620.011 385.377 620.722 388.946C621.432 392.514 623.185 395.792 625.759 398.364C628.332 400.936 631.61 402.688 635.179 403.397C638.748 404.106 642.447 403.742 645.808 402.349C649.17 400.956 652.043 398.598 654.064 395.572C656.085 392.547 657.164 388.99 657.164 385.352C657.158 380.473 655.216 375.795 651.766 372.346C648.315 368.897 643.637 366.957 638.758 366.953Z" fill="black"/>
</svg>
