<svg width="800" height="800" viewBox="0 0 800 800" fill="none" xmlns="http://www.w3.org/2000/svg">
<path d="M400.547 368.906L366.719 427.578H434.453L400.547 368.906Z" fill="#843A5F"/>
<path d="M495 136.406H306.953L249.297 407.5L400.938 576.016L551.797 408.437L552.578 407.5L495 136.406Z" fill="#843A5F"/>
<path d="M233.125 513.125C233.125 557.466 250.739 599.991 282.093 631.344C313.447 662.698 355.972 680.312 400.313 680.312C444.653 680.312 487.178 662.698 518.532 631.344C549.886 599.991 567.5 557.466 567.5 513.125C567.5 468.784 549.886 426.259 518.532 394.906C487.178 363.552 444.653 345.938 400.313 345.938C355.972 345.938 313.447 363.552 282.093 394.906C250.739 426.259 233.125 468.784 233.125 513.125Z" fill="#AE9AA4"/>
<path d="M400.313 682.656C355 682.656 312.422 665 280.391 632.969C248.359 600.938 230.703 558.359 230.703 513.047C230.703 467.734 248.359 425.156 280.391 393.125C312.422 361.094 355 343.438 400.313 343.438C445.625 343.438 488.203 361.094 520.234 393.125C552.266 425.156 569.922 467.734 569.922 513.047C569.922 558.359 552.266 600.938 520.234 632.969C488.125 665 445.547 682.656 400.313 682.656ZM400.313 348.281C309.375 348.281 235.469 422.266 235.469 513.125C235.469 603.984 309.453 677.969 400.313 677.969C491.25 677.969 565.156 603.984 565.156 513.125C565.156 422.266 491.172 348.281 400.313 348.281Z" fill="#843A5F"/>
<path d="M400.313 451.562L345.234 356.328H455.312L400.313 451.562Z" fill="white"/>
<path d="M400.313 456.25L341.25 353.906H459.375L400.313 456.25ZM349.297 358.672L400.234 446.953L451.172 358.672H349.297ZM527.5 144.844L527.344 144.531C522.813 130.156 515.859 116.719 506.797 104.609L506.719 104.453C502.422 98.75 497.578 93.2813 492.344 88.2813C477.031 73.5938 458.203 62.6563 437.891 56.7188C425.703 53.125 413.047 51.3281 400.234 51.3281C389.062 51.3281 377.891 52.7344 367.188 55.4688C365.781 55.8594 364.688 56.0937 363.672 56.4062C342.734 62.3437 323.359 73.5156 307.656 88.75C286.719 108.984 273.203 134.844 268.672 163.438C267.578 170.313 267.031 177.422 267.031 184.531C267.031 196.328 268.594 207.969 271.641 219.219C273.203 225.156 275.234 231.016 277.656 236.562C298.594 285.859 346.719 317.656 400.313 317.656C449.922 317.656 495.078 290.391 518.203 246.563C521.563 240.313 524.375 233.594 526.641 226.797C531.172 213.203 533.516 198.984 533.516 184.531C533.516 171.016 531.484 157.656 527.5 144.844Z" fill="#843A5F"/>
<path d="M285.078 230C285.078 248.098 288.091 266.018 293.945 282.739C299.799 299.459 308.379 314.651 319.196 327.448C330.012 340.245 342.853 350.396 356.986 357.322C371.118 364.248 386.266 367.812 401.563 367.812C416.859 367.812 432.007 364.248 446.139 357.322C460.272 350.396 473.113 340.245 483.929 327.448C494.746 314.651 503.326 299.459 509.18 282.739C515.034 266.018 518.047 248.098 518.047 230C518.047 193.45 505.774 158.397 483.929 132.552C462.084 106.707 432.456 92.1875 401.563 92.1875C370.669 92.1875 341.041 106.707 319.196 132.552C297.351 158.397 285.078 193.45 285.078 230Z" fill="#E6D8DF"/>
<path d="M401.563 370.156C336.016 370.156 282.734 307.266 282.734 230C282.734 152.734 336.094 89.8438 401.563 89.8438C467.031 89.8438 520.391 152.734 520.391 230C520.391 307.266 467.109 370.156 401.563 370.156ZM401.563 94.5312C338.594 94.5312 287.422 155.312 287.422 230C287.422 304.687 338.672 365.469 401.563 365.469C464.531 365.469 515.703 304.687 515.703 230C515.703 155.312 464.531 94.5312 401.563 94.5312Z" fill="#843A5F"/>
<path d="M401.172 321.953C383.125 321.953 364.844 317.578 364.844 309.219H369.531C369.531 311.953 380.703 317.266 401.172 317.266C421.641 317.266 432.812 311.953 432.812 309.219H437.5C437.5 317.578 419.219 321.953 401.172 321.953Z" fill="#843A5F"/>
<path d="M585.938 721.172H215.234C210.078 721.172 205.859 716.953 205.859 711.797V418.359C205.859 413.203 210.078 408.984 215.234 408.984H585.938C591.094 408.984 595.312 413.203 595.312 418.359V711.797C595.312 716.953 591.094 721.172 585.938 721.172Z" fill="white"/>
<path d="M585.938 723.516H215.234C208.75 723.516 203.516 718.281 203.516 711.797V418.359C203.516 411.875 208.75 406.641 215.234 406.641H585.938C592.422 406.641 597.656 411.875 597.656 418.359V711.797C597.656 718.281 592.422 723.516 585.938 723.516ZM215.234 411.328C211.328 411.328 208.203 414.453 208.203 418.359V711.797C208.203 715.703 211.328 718.828 215.234 718.828H585.938C589.844 718.828 592.969 715.703 592.969 711.797V418.359C592.969 414.453 589.844 411.328 585.938 411.328H215.234Z" fill="#843A5F"/>
<path d="M224.766 585.859C214.688 599.922 198.281 599.922 188.203 585.859C178.125 571.797 178.125 549.062 188.203 535.078C198.281 521.016 214.688 521.016 224.766 535.078C234.844 549.062 234.844 571.797 224.766 585.859Z" fill="#E6D8DF"/>
<path d="M206.484 598.75C198.828 598.75 191.641 594.687 186.328 587.266C175.703 572.5 175.703 548.437 186.328 533.672C191.641 526.25 198.828 522.188 206.484 522.188C214.141 522.188 221.328 526.25 226.641 533.672C237.266 548.437 237.266 572.5 226.641 587.266C221.328 594.609 214.141 598.75 206.484 598.75ZM206.484 526.875C200.391 526.875 194.531 530.234 190.078 536.406C180.547 549.687 180.547 571.25 190.078 584.453C194.531 590.625 200.312 593.984 206.484 593.984C212.656 593.984 218.437 590.625 222.891 584.453C232.422 571.172 232.422 549.609 222.891 536.406C218.359 530.234 212.578 526.875 206.484 526.875Z" fill="#843A5F"/>
<path d="M613.906 585.859C603.828 599.922 587.422 599.922 577.344 585.859C567.266 571.797 567.266 549.062 577.344 535.078C587.422 521.016 603.828 521.016 613.906 535.078C623.984 549.062 623.984 571.797 613.906 585.859Z" fill="#E6D8DF"/>
<path d="M595.625 598.75C587.969 598.75 580.781 594.687 575.469 587.266C564.844 572.5 564.844 548.437 575.469 533.672C580.781 526.25 587.969 522.188 595.625 522.188C603.281 522.188 610.469 526.25 615.781 533.672C626.406 548.437 626.406 572.5 615.781 587.266C610.469 594.609 603.281 598.75 595.625 598.75ZM595.625 526.875C589.531 526.875 583.672 530.234 579.219 536.406C569.688 549.687 569.688 571.25 579.219 584.453C583.672 590.625 589.453 593.984 595.625 593.984C601.797 593.984 607.578 590.625 612.031 584.453C621.563 571.172 621.563 549.609 612.031 536.406C607.578 530.234 601.797 526.875 595.625 526.875Z" fill="#843A5F"/>
<path d="M496.328 107.422L455.469 84.6098L453.359 86.1723C449.453 83.7504 439.531 82.3442 414.609 84.1411C396.172 85.4692 377.734 87.9692 377.578 88.0473L377.266 88.1254L303.516 121.094L278.516 136.954L282.266 235.704C281.797 238.75 281.797 240.469 281.797 240.704V241.094L287.891 259.375L287.031 236.016C288.125 228.75 291.641 213.75 302.344 196.094C316.328 173.125 345.938 140.782 407.422 117.5C409.766 116.641 411.953 115.782 414.062 114.922L412.813 115.86H420C453.984 115.86 478.437 151.407 493.047 181.25C509.062 214.063 516.875 247.266 516.953 247.657L521.406 266.954L522.344 146.485L496.328 107.422Z" fill="#843A5F"/>
<path d="M446.875 250.547C446.875 253.924 449.32 257.163 453.671 259.551C458.022 261.94 463.924 263.281 470.078 263.281C476.232 263.281 482.134 261.94 486.485 259.551C490.837 257.163 493.281 253.924 493.281 250.547C493.281 247.17 490.837 243.93 486.485 241.542C482.134 239.154 476.232 237.812 470.078 237.812C463.924 237.812 458.022 239.154 453.671 241.542C449.32 243.93 446.875 247.17 446.875 250.547Z" fill="#FF9FB9"/>
<path d="M451.563 201.016C442.578 201.016 435.234 210.938 435.234 223.203C435.234 235.469 442.578 245.313 451.563 245.313C460.547 245.313 467.891 235.391 467.891 223.125C467.891 210.859 460.547 201.016 451.563 201.016Z" fill="#843A5F"/>
<path d="M444.531 227.969C444.531 228.984 444.713 229.99 445.066 230.929C445.42 231.867 445.938 232.72 446.591 233.438C447.244 234.156 448.019 234.726 448.872 235.114C449.725 235.503 450.639 235.703 451.562 235.703C452.486 235.703 453.4 235.503 454.253 235.114C455.106 234.726 455.881 234.156 456.534 233.438C457.187 232.72 457.705 231.867 458.059 230.929C458.412 229.99 458.594 228.984 458.594 227.969C458.594 226.953 458.412 225.947 458.059 225.009C457.705 224.071 457.187 223.218 456.534 222.5C455.881 221.782 455.106 221.212 454.253 220.823C453.4 220.434 452.486 220.234 451.562 220.234C450.639 220.234 449.725 220.434 448.872 220.823C448.019 221.212 447.244 221.782 446.591 222.5C445.938 223.218 445.42 224.071 445.066 225.009C444.713 225.947 444.531 226.953 444.531 227.969Z" fill="white"/>
<path d="M427.344 198.203C433.829 191.875 442.188 187.578 450.938 185.391C462.032 182.578 470.313 187.812 478.125 195.234C479.219 196.25 480.86 194.609 479.766 193.594C472.344 186.484 463.75 180.625 452.969 182.5C442.891 184.297 432.969 189.375 425.625 196.484C424.61 197.578 426.25 199.219 427.344 198.203Z" fill="#843A5F"/>
<path d="M309.922 250.547C309.922 252.219 310.522 253.875 311.688 255.42C312.854 256.965 314.563 258.369 316.718 259.551C318.873 260.734 321.43 261.672 324.246 262.312C327.061 262.952 330.078 263.281 333.125 263.281C336.172 263.281 339.189 262.952 342.004 262.312C344.82 261.672 347.377 260.734 349.532 259.551C351.687 258.369 353.396 256.965 354.562 255.42C355.728 253.875 356.328 252.219 356.328 250.547C356.328 248.875 355.728 247.219 354.562 245.674C353.396 244.129 351.687 242.725 349.532 241.542C347.377 240.36 344.82 239.422 342.004 238.782C339.189 238.142 336.172 237.812 333.125 237.812C330.078 237.812 327.061 238.142 324.246 238.782C321.43 239.422 318.873 240.36 316.718 241.542C314.563 242.725 312.854 244.129 311.688 245.674C310.522 247.219 309.922 248.875 309.922 250.547Z" fill="#FF9FB9"/>
<path d="M351.641 201.016C342.656 201.016 335.312 210.938 335.312 223.203C335.312 235.469 342.656 245.391 351.641 245.391C360.625 245.391 367.969 235.469 367.969 223.203C367.969 210.938 360.625 201.016 351.641 201.016Z" fill="#843A5F"/>
<path d="M344.609 227.969C344.609 230.02 345.35 231.987 346.669 233.438C347.987 234.888 349.776 235.703 351.641 235.703C353.505 235.703 355.294 234.888 356.612 233.438C357.931 231.987 358.672 230.02 358.672 227.969C358.672 225.917 357.931 223.95 356.612 222.5C355.294 221.049 353.505 220.234 351.641 220.234C349.776 220.234 347.987 221.049 346.669 222.5C345.35 223.95 344.609 225.917 344.609 227.969Z" fill="white"/>
<path d="M377.5 196.484C370.235 189.374 360.235 184.296 350.157 182.499C339.375 180.624 330.86 186.406 323.36 193.593C322.266 194.609 323.907 196.328 325 195.234C332.735 187.812 341.094 182.578 352.188 185.39C360.938 187.578 369.297 191.874 375.782 198.203C376.953 199.218 378.594 197.578 377.5 196.484Z" fill="#843A5F"/>
<path d="M493.75 698.125H306.328C301.172 698.125 296.953 693.906 296.953 688.75V441.797C296.953 436.641 301.172 432.422 306.328 432.422H493.75C498.906 432.422 503.125 436.641 503.125 441.797V688.828C503.125 693.906 498.906 698.125 493.75 698.125Z" fill="#843A5F"/>
<path d="M493.75 700.469H306.328C299.844 700.469 294.609 695.234 294.609 688.75V441.797C294.609 435.312 299.844 430.078 306.328 430.078H493.75C500.234 430.078 505.469 435.312 505.469 441.797V688.828C505.469 695.234 500.156 700.469 493.75 700.469ZM306.328 434.766C302.422 434.766 299.297 437.891 299.297 441.797V688.828C299.297 692.734 302.422 695.859 306.328 695.859H493.75C497.656 695.859 500.781 692.734 500.781 688.828V441.797C500.781 437.891 497.656 434.766 493.75 434.766H306.328Z" fill="#843A5F"/>
<path d="M340.703 551.563H333.75V550H354.922V551.563H348.984C348.984 556.797 347.344 560.547 343.984 562.813C340.625 565.078 337.109 566.25 333.437 566.25C328.125 566.25 323.594 564.141 320.078 559.844C316.484 555.547 314.766 550.547 314.766 544.844C314.766 539.063 316.563 534.062 320.234 529.766C323.906 525.547 328.437 523.438 333.828 523.438C336.641 523.438 339.297 524.219 341.875 525.859C342.656 526.328 343.203 526.563 343.516 526.563C344.141 526.563 344.844 526.016 345.469 524.844H346.875L347.266 535.938H345.703C343.984 528.594 340 524.922 333.672 524.922C330.391 524.922 327.969 525.625 326.484 527.109C325 528.594 324.063 530.469 323.75 532.656C323.437 534.922 323.281 538.125 323.281 542.266C323.281 549.766 323.516 554.766 324.062 557.188C324.531 559.609 325.547 561.484 327.109 562.734C328.672 563.984 330.547 564.609 332.813 564.609C334.609 564.609 336.172 564.219 337.578 563.516C338.984 562.812 339.844 561.719 340.234 560.234C340.625 558.75 340.781 556.641 340.781 553.75V551.563H340.703ZM378.203 566.25C372.891 566.25 368.437 564.062 364.766 559.609C361.094 555.156 359.219 550.469 359.219 545.391C359.219 539.297 361.172 534.141 365 529.844C368.906 525.547 373.359 523.438 378.516 523.438C383.359 523.438 387.656 525.625 391.484 530C395.313 534.375 397.188 539.297 397.188 544.844C397.188 550.547 395.234 555.547 391.406 559.844C387.656 564.062 383.203 566.25 378.203 566.25ZM378.359 525C376.094 525 374.141 525.547 372.344 526.563C370.547 527.578 369.375 529.375 368.75 531.953C368.125 534.531 367.812 538.906 367.812 545.234C367.812 549.609 367.969 553.125 368.359 555.703C368.75 558.281 369.688 560.469 371.172 562.187C372.656 563.906 375 564.766 378.203 564.766C380.156 564.766 382.109 564.219 384.063 563.203C386.016 562.188 387.344 560.156 387.891 557.109C388.516 554.062 388.828 549.375 388.828 543.125C388.828 537.422 388.437 533.438 387.734 531.25C386.953 529.063 385.781 527.5 384.141 526.563C382.422 525.469 380.469 525 378.359 525ZM417.109 525.938V563.75H426.328C428.125 563.75 429.453 563.594 430.547 563.359C431.562 563.125 432.578 562.422 433.516 561.406C434.531 560.391 435.234 559.141 435.781 557.813C436.328 556.406 436.875 554.453 437.5 551.953H438.906L437.813 565.312H403.438V563.75H409.844V525.938H403.438V524.375H423.984V525.938H417.109ZM449.922 563.75V525.938H443.516V524.375H462.813C467.109 524.375 470.703 525 473.75 526.172C476.797 527.344 479.297 529.766 481.328 533.281C483.359 536.797 484.375 540.625 484.375 544.766C484.375 549.141 483.281 553.047 481.016 556.484C478.75 559.922 476.172 562.266 473.281 563.438C470.391 564.609 466.797 565.234 462.578 565.234H443.359V563.672H449.922V563.75ZM457.188 525.938V563.75H462.5C465.313 563.75 467.578 563.516 469.297 562.969C471.094 562.422 472.5 561.328 473.672 559.609C474.844 557.891 475.625 555.703 476.016 553.125C476.406 550.469 476.641 547.109 476.641 542.812C476.641 537.734 476.016 533.906 474.687 531.406C473.359 528.906 471.797 527.344 469.922 526.719C468.047 526.094 465.625 525.781 462.578 525.781H457.188V525.938Z" fill="white"/>
<path d="M355.156 625.547L358.359 625.234C358.594 626.719 359.141 627.813 359.922 628.438C360.703 629.063 361.641 629.453 362.812 629.453C363.828 629.453 364.687 629.219 365.469 628.75C366.25 628.281 366.875 627.656 367.344 626.875C367.813 626.094 368.203 625.078 368.594 623.75C368.984 622.422 369.062 621.094 369.062 619.688V619.063C368.437 620.078 367.5 620.938 366.328 621.641C365.156 622.344 363.906 622.656 362.5 622.656C360.547 622.656 358.594 621.875 357.188 620.469C355.469 618.828 354.688 616.641 354.688 613.906C354.688 611.172 355.469 608.984 357.109 607.344C358.75 605.703 360.703 604.844 363.125 604.844C364.844 604.844 366.484 605.312 367.891 606.25C369.297 607.187 370.469 608.516 371.172 610.234C371.875 611.953 372.266 614.453 372.266 617.812C372.266 621.25 371.875 623.984 371.172 626.016C370.469 628.047 369.297 629.609 367.812 630.625C366.328 631.641 364.609 632.188 362.656 632.188C360.547 632.188 358.828 631.641 357.5 630.469C356.172 629.297 355.391 627.656 355.156 625.547ZM368.672 613.672C368.672 611.797 368.203 610.312 367.187 609.141C366.172 607.969 365 607.5 363.516 607.5C362.031 607.5 360.781 608.125 359.687 609.297C358.594 610.469 358.047 612.031 358.047 613.984C358.047 615.703 358.594 617.109 359.609 618.125C360.625 619.141 361.875 619.766 363.438 619.766C365 619.766 366.25 619.219 367.187 618.125C368.125 617.031 368.672 615.547 368.672 613.672ZM376.016 625.547L379.219 625.234C379.453 626.719 380 627.813 380.781 628.438C381.562 629.063 382.5 629.453 383.672 629.453C384.688 629.453 385.547 629.219 386.328 628.75C387.109 628.281 387.734 627.656 388.203 626.875C388.672 626.094 389.062 625.078 389.453 623.75C389.844 622.422 389.922 621.094 389.922 619.688V619.063C389.297 620.078 388.359 620.938 387.188 621.641C386.016 622.344 384.766 622.656 383.359 622.656C381.406 622.656 379.453 621.875 378.047 620.469C376.328 618.828 375.547 616.641 375.547 613.906C375.547 611.172 376.328 608.984 377.969 607.344C379.609 605.703 381.562 604.844 383.984 604.844C385.703 604.844 387.344 605.312 388.75 606.25C390.156 607.187 391.328 608.516 392.031 610.234C392.734 611.953 393.125 614.453 393.125 617.812C393.125 621.25 392.734 623.984 392.031 626.016C391.328 628.047 390.156 629.609 388.672 630.625C387.187 631.641 385.469 632.188 383.516 632.188C381.406 632.188 379.687 631.641 378.359 630.469C377.031 629.297 376.25 627.656 376.016 625.547ZM389.531 613.672C389.531 611.797 389.063 610.312 388.047 609.141C387.031 607.969 385.859 607.5 384.375 607.5C382.891 607.5 381.641 608.125 380.547 609.297C379.453 610.469 378.906 612.031 378.906 613.984C378.906 615.703 379.453 617.109 380.469 618.125C381.484 619.141 382.734 619.766 384.297 619.766C385.859 619.766 387.109 619.219 388.047 618.125C388.984 617.031 389.531 615.547 389.531 613.672ZM396.875 625.547L400.078 625.234C400.312 626.719 400.859 627.813 401.641 628.438C402.422 629.063 403.359 629.453 404.531 629.453C405.547 629.453 406.406 629.219 407.188 628.75C407.969 628.281 408.594 627.656 409.062 626.875C409.531 626.094 409.922 625.078 410.313 623.75C410.703 622.422 410.781 621.094 410.781 619.688V619.063C410.156 620.078 409.219 620.938 408.047 621.641C406.875 622.344 405.625 622.656 404.219 622.656C402.266 622.656 400.313 621.875 398.906 620.469C397.188 618.828 396.406 616.641 396.406 613.906C396.406 611.172 397.187 608.984 398.828 607.344C400.469 605.703 402.422 604.844 404.844 604.844C406.563 604.844 408.203 605.312 409.609 606.25C411.016 607.187 412.187 608.516 412.891 610.234C413.594 611.953 413.984 614.453 413.984 617.812C413.984 621.25 413.594 623.984 412.891 626.016C412.187 628.047 411.016 629.609 409.531 630.625C408.047 631.641 406.328 632.188 404.375 632.188C402.266 632.188 400.547 631.641 399.219 630.469C397.969 629.297 397.109 627.656 396.875 625.547ZM410.391 613.672C410.391 611.797 409.922 610.312 408.906 609.141C407.891 607.969 406.719 607.5 405.234 607.5C403.75 607.5 402.5 608.125 401.406 609.297C400.312 610.469 399.766 612.031 399.766 613.984C399.766 615.703 400.313 617.109 401.328 618.125C402.344 619.141 403.594 619.766 405.156 619.766C406.719 619.766 407.969 619.219 408.906 618.125C409.844 617.031 410.391 615.547 410.391 613.672ZM419.063 631.719V627.969H422.813V631.719H419.063ZM428.125 625.547L431.328 625.234C431.562 626.719 432.109 627.813 432.891 628.438C433.672 629.063 434.609 629.453 435.781 629.453C436.797 629.453 437.656 629.219 438.438 628.75C439.219 628.281 439.844 627.656 440.312 626.875C440.781 626.094 441.172 625.078 441.563 623.75C441.953 622.422 442.031 621.094 442.031 619.688V619.063C441.406 620.078 440.469 620.938 439.297 621.641C438.125 622.344 436.875 622.656 435.469 622.656C433.516 622.656 431.562 621.875 430.156 620.469C428.437 618.828 427.656 616.641 427.656 613.906C427.656 611.172 428.437 608.984 430.078 607.344C431.719 605.703 433.672 604.844 436.094 604.844C437.813 604.844 439.453 605.312 440.859 606.25C442.266 607.187 443.437 608.516 444.141 610.234C444.844 611.953 445.234 614.453 445.234 617.812C445.234 621.25 444.844 623.984 444.141 626.016C443.437 628.047 442.266 629.609 440.781 630.625C439.297 631.641 437.578 632.188 435.625 632.188C433.516 632.188 431.797 631.641 430.469 630.469C429.141 629.297 428.437 627.656 428.125 625.547ZM441.641 613.672C441.641 611.797 441.172 610.312 440.156 609.141C439.141 607.969 437.969 607.5 436.484 607.5C435 607.5 433.75 608.125 432.656 609.297C431.562 610.469 431.016 612.031 431.016 613.984C431.016 615.703 431.563 617.109 432.578 618.125C433.594 619.141 434.844 619.766 436.406 619.766C437.969 619.766 439.219 619.219 440.156 618.125C441.094 617.031 441.641 615.547 441.641 613.672Z" fill="white"/>
</svg>
