<svg width="800" height="800" viewBox="0 0 800 800" fill="none" xmlns="http://www.w3.org/2000/svg">
<path d="M251.031 731.125C202.073 695.135 176.399 667.411 174.008 647.953C171.617 628.495 189.656 594.003 228.125 544.477C182.261 527.122 156.258 510.734 150.117 495.313C143.977 479.891 151.94 450.984 174.008 408.594C146.367 345.813 138.404 302.271 150.117 277.969C161.831 253.667 200.784 232.927 266.977 215.75C280.336 183.297 296.787 161.714 316.328 151C335.87 140.286 369.464 134.432 417.11 133.438L488.985 173.523C567.63 183.206 612.602 197.268 623.899 215.711C635.196 234.154 627.794 281.471 601.695 357.664C620.492 389.721 633.097 414.596 639.508 432.289C645.919 449.982 645.919 470.99 639.508 495.313C626.711 531.74 614.107 552.971 601.695 559.008C589.284 565.044 563.477 565.044 524.274 559.008L468.461 647.953L385.156 665.523C363.651 701.841 345.321 723.716 330.164 731.148C315.008 738.581 288.63 738.573 251.031 731.125Z" fill="white"/>
<path d="M217.492 546.531C231.449 553.303 246.784 556.751 262.295 556.603C277.807 556.455 293.074 552.716 306.899 545.68V547.5C306.908 572.806 315.698 597.325 331.769 616.873C347.84 636.42 370.197 649.785 395.024 654.688C391.046 671.476 383.152 687.085 371.985 700.237C360.818 713.388 346.696 723.71 330.775 730.357C314.854 737.005 297.585 739.789 280.382 738.481C263.178 737.174 246.528 731.813 231.794 722.837C217.06 713.86 204.66 701.524 195.608 686.836C186.557 672.147 181.111 655.525 179.716 638.329C178.321 621.132 181.016 603.849 187.582 587.894C194.148 571.939 204.398 557.765 217.492 546.531Z" fill="#DBBFFF"/>
<path d="M365.625 707.031C323.836 694.633 279.336 675.219 253.437 643.344C236.852 622.93 216.602 588.82 201.633 563.367C206.31 557.227 211.62 551.597 217.477 546.57C231.433 553.342 246.768 556.79 262.28 556.642C277.791 556.494 293.058 552.755 306.883 545.719V547.539C306.902 572.841 315.698 597.352 331.772 616.892C347.845 636.432 370.2 649.79 395.023 654.687C390.313 674.542 380.128 692.677 365.625 707.031Z" fill="#CE87FF"/>
<path d="M293.195 227.695C302.467 211.426 315.759 197.81 331.801 188.151C347.842 178.491 366.095 173.112 384.81 172.528C403.526 171.944 422.079 176.174 438.691 184.815C455.304 193.455 469.42 206.216 479.687 221.874C479.833 224.197 479.906 226.541 479.906 228.906C479.927 243.827 476.88 258.594 470.953 272.289C452.407 257.779 429.959 249.123 406.473 247.424C382.987 245.725 359.527 251.06 339.086 262.749C327.197 247.173 311.35 235.068 293.195 227.695Z" fill="#E2CDFF"/>
<path d="M306.899 545.68C320.172 538.902 331.769 529.253 340.847 517.432C349.924 505.612 356.253 491.917 359.375 477.344C381.45 484.909 405.26 485.827 427.852 479.984C432.84 502.524 444.832 522.908 462.111 538.217C479.39 553.525 501.07 562.975 524.047 565.211C519.63 592.328 505.163 616.788 483.525 633.719C461.888 650.651 434.668 658.814 407.284 656.582C379.9 654.35 354.361 641.887 335.751 621.674C317.142 601.462 306.827 574.983 306.859 547.508C306.875 546.898 306.888 546.289 306.899 545.68Z" fill="#DBBFFF"/>
<path d="M498.086 619.844C465.234 605.063 439.211 584.516 433.07 556.563C419.789 560.016 423.063 565.523 408.703 565.523C389.883 565.523 357.68 572.883 340.836 567.086C330.727 572.93 321.484 578.422 312.977 583.586C308.934 571.998 306.876 559.812 306.891 547.539V545.719C320.17 538.938 331.772 529.283 340.851 517.455C349.93 505.628 356.258 491.925 359.375 477.344C381.45 484.909 405.26 485.827 427.852 479.984C432.84 502.524 444.832 522.908 462.111 538.217C479.39 553.525 501.07 562.975 524.047 565.211C520.73 585.509 511.728 604.452 498.086 619.844Z" fill="#CE87FF"/>
<path d="M359.375 477.344C356.353 491.521 350.291 504.873 341.608 516.48C332.924 528.087 321.825 537.671 309.077 544.571C296.33 551.472 282.237 555.524 267.77 556.448C253.304 557.373 238.81 555.147 225.288 549.926C211.765 544.704 199.537 536.61 189.447 526.203C179.356 515.796 171.644 503.324 166.842 489.647C162.041 475.97 160.264 461.414 161.634 446.983C163.005 432.552 167.491 418.591 174.781 406.062C190.54 421.873 210.758 432.485 232.721 436.476C254.684 440.467 277.342 437.646 297.656 428.391C312.06 451.256 333.831 468.524 359.375 477.344Z" fill="#DBBFFF"/>
<path d="M343.461 513.852C333.256 505.169 324.431 494.985 317.289 483.648C294.722 493.942 269.545 497.083 245.14 492.651C220.736 488.218 198.272 476.424 180.766 458.852C174.648 469.321 170.295 480.726 167.883 492.609C162.472 478.589 160.281 463.532 161.469 448.551C162.658 433.57 167.196 419.047 174.75 406.055C190.511 421.873 210.733 432.491 232.703 436.483C254.673 440.476 277.338 437.652 297.656 428.391C312.06 451.256 333.831 468.524 359.375 477.344C356.582 490.46 351.169 502.878 343.461 513.852Z" fill="#CE87FF"/>
<path d="M634.43 265.704C634.654 268.568 634.768 271.464 634.773 274.391C634.788 291.53 630.764 308.431 623.027 323.725C615.29 339.018 604.058 352.273 590.242 362.415C573.402 352.438 554.183 347.189 534.609 347.219C528.417 347.22 522.237 347.742 516.133 348.782C521.81 334.596 524.456 319.378 523.9 304.108C523.345 288.839 519.6 273.854 512.906 260.118C531.442 248.911 552.888 243.46 574.525 244.456C596.163 245.451 617.017 252.849 634.445 265.712L634.43 265.704ZM231.609 436.313C213.995 420.282 202.099 398.936 197.73 375.523C193.362 352.11 196.761 327.91 207.409 306.606C218.058 285.301 235.374 268.058 256.722 257.499C278.071 246.94 302.285 243.643 325.68 248.11C330.587 252.562 335.082 257.449 339.109 262.712C325.269 270.639 313.173 281.282 303.549 294.002C293.924 306.721 286.97 321.254 283.102 336.728C279.235 352.203 278.535 368.299 281.044 384.051C283.553 399.802 289.219 414.884 297.703 428.391C277.025 437.798 253.94 440.566 231.625 436.313H231.609Z" fill="#E2CDFF"/>
<path d="M427.828 479.984C455.924 472.644 480.346 455.242 496.458 431.082C512.569 406.923 519.248 377.688 515.227 348.929C536.314 345.147 558.048 347.648 577.725 356.121C597.402 364.594 614.154 378.666 625.896 396.585C637.638 414.505 643.852 435.481 643.765 456.905C643.679 478.328 637.295 499.254 625.408 517.078C613.522 534.902 596.657 548.837 576.912 557.151C557.167 565.465 535.414 567.79 514.358 563.837C493.302 559.884 473.873 549.827 458.488 534.918C443.103 520.009 432.441 500.905 427.828 479.984Z" fill="#DBBFFF"/>
<path d="M616.656 384.328C603.497 381.847 589.996 381.778 576.813 384.125C580.836 412.88 574.161 442.111 558.056 466.27C541.95 490.428 517.535 507.833 489.445 515.179C493.415 533.218 501.908 549.951 514.125 563.805C493.122 559.797 473.755 549.722 458.417 534.825C443.08 519.927 432.445 500.861 427.828 479.984C455.924 472.644 480.346 455.242 496.458 431.083C512.569 406.923 519.248 377.689 515.227 348.93C533.751 345.618 552.816 347.136 570.584 353.336C588.351 359.537 604.222 370.21 616.664 384.328H616.656Z" fill="#CE87FF"/>
<path d="M401.562 481.945C379.524 468.393 362.512 448.015 353.113 423.91C343.715 399.806 342.443 373.291 349.491 348.397C356.539 323.504 371.522 301.591 392.162 285.991C412.802 270.391 437.971 261.956 463.844 261.969H464.508C486.546 275.521 503.558 295.899 512.957 320.004C522.355 344.108 523.627 370.623 516.579 395.517C509.531 420.41 494.548 442.323 473.908 457.923C453.268 473.523 428.099 481.958 402.226 481.945H401.562Z" fill="#E2CDFF"/>
<path d="M288.672 754.687C219.586 754.687 163.375 698.5 163.375 629.437C163.368 611.378 167.27 593.53 174.812 577.121C182.355 560.712 193.359 546.129 207.07 534.375L215.047 527.523L224.5 532.133C236.226 537.819 249.11 540.714 262.142 540.591C275.174 540.468 288 537.329 299.617 531.422L323.336 519.297L322.898 545.93V547.492C322.921 569.089 330.43 590.011 344.144 606.694C357.859 623.377 376.933 634.791 398.117 638.992L414.445 642.195L410.609 658.383C404.08 685.811 388.492 710.237 366.366 727.712C344.24 745.187 316.867 754.691 288.672 754.687ZM220.883 565.375C204.498 582.68 195.37 605.607 195.375 629.437C195.375 680.852 237.227 722.656 288.672 722.656C309.865 722.741 330.442 715.53 346.945 702.234C359.056 692.522 368.572 679.96 374.641 665.672C353.532 658.221 334.798 645.265 320.376 628.146C305.954 611.026 296.368 590.364 292.609 568.297C282.434 571.13 271.922 572.57 261.359 572.578C247.545 572.622 233.834 570.182 220.883 565.375ZM477.414 297.656L461.102 284.844C443.117 270.665 420.862 262.994 397.961 263.078C380.112 263.061 362.569 267.71 347.07 276.563L334.914 283.594L326.398 272.461C318.511 262.149 308.562 253.594 297.185 247.341C285.808 241.087 273.253 237.273 260.32 236.141L244.484 234.789L245.734 218.945C248.241 187.54 262.488 158.231 285.636 136.859C308.785 115.488 339.135 103.621 370.641 103.625C439.727 103.625 495.937 159.813 495.937 228.867C495.971 245.978 492.474 262.912 485.664 278.609L477.414 297.656ZM397.961 231.102C420.372 231.027 442.439 236.611 462.117 247.336C463.329 241.268 463.936 235.094 463.93 228.906C463.93 177.492 422.078 135.664 370.633 135.664C349.724 135.666 329.42 142.688 312.978 155.604C296.535 168.521 284.906 186.584 279.953 206.898C304.073 212.405 326.031 224.906 343.078 242.836C360.344 235.106 379.044 231.1 397.961 231.078V231.102Z" fill="black"/>
<path d="M416.18 672.75C347.094 672.75 290.883 616.562 290.883 547.5V545.414L291.039 535.805L299.633 531.43C310.805 525.763 320.565 517.664 328.194 507.728C335.824 497.792 341.129 486.272 343.719 474.016L347.477 456.312L364.586 462.211C383.685 468.749 404.283 469.542 423.828 464.492L439.914 460.312L443.453 476.562C447.713 495.801 457.951 513.199 472.701 526.264C487.452 539.329 505.958 547.391 525.57 549.297L542.594 550.922L539.844 567.789C535.02 597.105 519.937 623.753 497.286 642.978C474.635 662.204 445.89 672.755 416.18 672.75ZM323.172 554.828C324.87 576.183 333.863 596.303 348.641 611.811C363.42 627.32 383.084 637.271 404.332 639.995C425.581 642.719 447.119 638.049 465.332 626.771C483.544 615.492 497.322 598.291 504.352 578.055C484.295 573.046 465.784 563.166 450.461 549.29C435.138 535.414 423.475 517.971 416.508 498.508C401.131 500.634 385.503 500.105 370.305 496.945C361.434 520.925 344.857 541.283 323.172 554.828Z" fill="black"/>
<path d="M261.344 572.609C197.281 572.609 145.156 520.508 145.156 456.469C145.148 435.923 150.594 415.744 160.938 397.992L171.422 380.023L186.094 394.766C199.551 408.27 216.817 417.335 235.574 420.744C254.332 424.153 273.683 421.743 291.031 413.836L303.766 408.008L311.227 419.859C323.684 439.62 342.493 454.556 364.563 462.211L377.938 466.82L375 480.664C369.444 506.685 355.127 530.012 334.441 546.747C313.754 563.482 287.952 572.611 261.344 572.609ZM180.797 431.984C174.454 452.849 176.454 475.36 186.376 494.78C196.298 514.199 213.367 529.012 233.991 536.099C254.614 543.185 277.183 541.994 296.946 532.775C316.709 523.556 332.124 507.028 339.945 486.672C321.134 477.633 304.669 464.365 291.836 447.906C273.357 454.03 253.708 455.779 234.437 453.015C215.167 450.25 196.802 443.048 180.789 431.977L180.797 431.984ZM591.172 381.578L582.031 376.18C567.651 367.682 551.25 363.206 534.547 363.219C528.999 363.218 523.462 363.707 518 364.68L501.641 367.602L499.344 351.141C495.697 324.902 481.964 301.119 461.062 284.844L451.344 277.227L456.258 265.891C461.584 253.535 464.181 240.176 463.87 226.726C463.56 213.275 460.351 200.05 454.461 187.953L448.031 174.82L460.531 167.234C480.103 155.384 502.55 149.126 525.43 149.141C594.531 149.141 650.781 205.328 650.781 274.391C650.793 294.039 646.176 313.415 637.303 330.946C628.43 348.477 615.551 363.671 599.711 375.297L591.172 381.578ZM534.578 331.25C553.15 331.239 571.493 335.354 588.281 343.297C597.853 334.546 605.503 323.903 610.747 312.042C615.992 300.18 618.717 287.36 618.75 274.391C618.75 222.977 576.898 181.148 525.453 181.148C513.021 181.142 500.713 183.617 489.25 188.43C497.921 214.007 498.14 241.695 489.875 267.406C508.403 284.68 521.627 306.874 528 331.391C530.198 331.297 532.391 331.25 534.578 331.25Z" fill="black"/>
<path d="M252.234 454.259C183.148 454.259 126.938 398.071 126.938 329.016C126.938 259.962 183.148 203.766 252.234 203.766C271.51 203.7 290.538 208.111 307.818 216.652C325.099 225.193 340.159 237.631 351.813 252.985L362.914 267.493L347.07 276.563C335.096 283.413 324.63 292.614 316.302 303.611C307.974 314.609 301.955 327.176 298.607 340.559C295.259 353.942 294.651 367.863 296.819 381.487C298.988 395.11 303.889 408.155 311.227 419.837L320.969 435.305L304.352 442.969C288 450.457 270.219 454.309 252.234 454.259ZM252.234 235.766C200.789 235.766 158.938 277.595 158.938 329.009C158.938 380.423 200.781 422.259 252.234 422.259C259.871 422.269 267.48 421.343 274.891 419.501C262.91 392.225 260.333 361.741 267.565 332.84C274.797 303.94 291.428 278.263 314.844 259.845C297.718 244.274 275.38 235.683 252.234 235.766ZM534.578 581.712C506.034 581.714 478.345 571.972 456.09 554.098C433.836 536.223 418.35 511.287 412.195 483.415L408.891 468.368L423.797 464.462C445.725 458.754 465.14 445.93 478.995 428C492.851 410.071 500.365 388.051 500.359 365.391C500.361 360.611 500.032 355.837 499.375 351.102L497.25 335.852L512.414 333.141C519.732 331.861 527.149 331.229 534.578 331.251C603.664 331.251 659.875 387.438 659.875 456.501C659.875 525.563 603.672 581.712 534.578 581.712ZM447.656 490.313C454.491 507.812 466.446 522.84 481.96 533.434C497.474 544.027 515.824 549.692 534.609 549.688C586.055 549.688 627.906 507.86 627.906 456.446C627.906 405.032 586.023 363.22 534.578 363.22H532.344V365.399C532.356 392.306 524.291 418.597 509.192 440.868C494.093 463.139 472.656 480.364 447.656 490.313Z" fill="black"/>
<path d="M402.211 497.954C327.859 497.954 267.367 437.485 267.367 363.165C267.367 288.845 327.859 228.376 402.211 228.376C476.563 228.376 537.055 288.845 537.055 363.165C537.055 437.485 476.563 497.954 402.211 497.954ZM402.211 260.376C345.508 260.376 299.367 306.47 299.367 363.165C299.367 419.86 345.5 465.954 402.211 465.954C458.922 465.954 505.047 419.86 505.047 363.165C505.047 306.47 458.922 260.376 402.211 260.376ZM477.023 187.157C474.266 187.153 471.556 186.436 469.157 185.077C466.758 183.717 464.751 181.761 463.33 179.398C461.909 177.035 461.123 174.345 461.047 171.588C460.971 168.832 461.609 166.103 462.898 163.665C479.789 131.767 497.836 107.056 516.547 90.2275C536.664 72.1181 558.211 62.3603 580.609 61.2275C584.848 61.013 588.998 62.491 592.146 65.3363C595.295 68.1816 597.184 72.1611 597.398 76.3994C597.613 80.6377 596.135 84.7875 593.29 87.9361C590.444 91.0847 586.465 92.974 582.227 93.1884C550.977 94.7509 520.391 123.524 491.195 178.665C489.829 181.236 487.788 183.385 485.29 184.882C482.793 186.378 479.935 187.165 477.023 187.157Z" fill="black"/>
<path d="M291.898 154.321C273.362 136.821 258.326 113.683 246.789 84.9067C295.398 58.9015 341.023 53.6593 383.664 69.1802C426.305 84.701 457.885 118.034 478.406 169.18C474.057 171.508 469.732 173.667 465.43 175.657C457.556 160.316 446.049 147.135 431.912 137.264C417.775 127.392 401.437 121.128 384.324 119.02C367.21 116.913 349.841 119.024 333.731 125.17C317.621 131.316 303.259 141.311 291.898 154.282V154.321Z" fill="#89D66D"/>
<path d="M458.227 196.679L451.195 183.007C444.518 169.982 434.754 158.789 422.755 150.405C410.757 142.021 396.889 136.701 382.362 134.91C367.835 133.118 353.09 134.91 339.415 140.127C325.739 145.345 313.548 153.83 303.906 164.843L292.969 177.343L280.891 165.944C260.742 146.921 244.266 121.655 231.914 90.8584L226.578 77.5772L239.219 70.8194C291.781 42.6944 342.219 37.0928 389.117 54.1631C436.016 71.2334 471.094 107.929 493.258 163.28L498.594 176.562L485.938 183.319C481.407 185.746 476.809 188.043 472.148 190.21L458.227 196.679ZM267.547 92.4678C274.656 107.397 282.938 120.452 292.297 131.53C310.528 115.958 332.944 106.105 356.743 103.202C380.543 100.3 404.67 104.476 426.109 115.21C412.398 101.133 395.633 90.3968 377.111 83.8309C358.589 77.2649 338.806 75.0451 319.289 77.3428C302.688 79.2803 285.336 84.374 267.547 92.4678Z" fill="black"/>
</svg>
