<svg width="800" height="800" viewBox="0 0 800 800" fill="none" xmlns="http://www.w3.org/2000/svg">
<path d="M195.641 636.851C106.164 551.413 100 414.304 169.148 294.593C238.297 174.882 360.156 111.663 478.906 146.398C479.816 144.184 480.874 142.033 482.07 139.96C497.883 112.616 534.602 104.171 564.102 121.21C593.602 138.249 604.641 174.171 588.828 201.562C587.632 203.635 586.298 205.627 584.836 207.523C674.313 292.968 680.469 430.062 611.32 549.773C542.172 669.484 420.313 732.702 301.563 697.968C300.652 700.182 299.595 702.333 298.398 704.406C282.586 731.749 245.867 740.195 216.367 723.156C186.867 706.116 175.82 670.163 191.641 642.781C192.841 640.717 194.177 638.736 195.641 636.851Z" fill="white"/>
<path d="M589.476 147.703C598.109 164.633 598.555 184.719 588.828 201.555C587.631 203.628 586.298 205.62 584.836 207.516C674.312 292.969 680.469 430.063 611.32 549.773C542.172 669.484 420.312 732.703 301.562 697.969C300.652 700.183 299.595 702.333 298.398 704.406C288.75 721.094 271.383 730.703 252.617 731.859C243.984 714.93 243.539 694.844 253.266 678.008C254.462 675.934 255.796 673.943 257.258 672.047C167.781 586.609 161.625 449.5 230.773 329.789C299.922 210.078 421.781 146.875 540.547 181.594C541.47 179.379 542.54 177.228 543.75 175.156C553.344 158.492 570.711 148.859 589.476 147.703Z" fill="#FBDB7B"/>
<path d="M240.625 654.492C356.25 609.893 437.573 546.557 484.594 464.484C528.198 388.385 558.818 283.534 576.453 149.93C580.7 148.713 585.067 147.964 589.477 147.695C598.109 164.625 598.555 184.711 588.828 201.547C587.632 203.62 586.298 205.612 584.836 207.508C674.313 292.969 680.469 430.063 611.32 549.773C542.172 669.484 420.312 732.703 301.562 697.969C300.652 700.183 299.595 702.333 298.398 704.406C288.75 721.094 271.383 730.703 252.617 731.859C243.984 714.93 243.539 694.844 253.266 678.008C254.462 675.934 255.796 673.943 257.258 672.047C251.419 666.481 245.868 660.622 240.625 654.492Z" fill="#F9AF49"/>
<path d="M248.703 747.945C234.533 747.907 220.623 744.134 208.375 737.008C190.844 727.046 177.748 710.801 171.734 691.555C166.266 673.726 167.586 655.328 175.437 639.211C134.766 596.273 111.148 541.406 106.945 479.687C102.586 415.687 119.305 348.922 155.289 286.617C183.055 238.539 219.953 198.023 261.984 169.43L279.953 195.891C241.875 221.789 208.344 258.695 182.969 302.625C150.156 359.406 134.914 419.875 138.836 477.516C142.789 535.617 166.242 586.726 206.648 625.305L217.062 635.25L208.266 646.648C207.244 647.963 206.309 649.344 205.469 650.781C200.07 660.156 198.937 671.266 202.289 682.148C205.934 693.666 213.817 703.37 224.344 709.297C246.133 721.875 273.117 716.07 284.5 696.375C285.342 694.918 286.086 693.407 286.727 691.851L292.195 678.57L306.008 682.609C359.672 698.297 415.68 693.047 467.969 667.414C519.867 641.992 564.633 598.547 597.43 541.766C630.227 484.984 645.484 424.516 641.562 366.875C637.609 308.773 614.156 257.664 573.75 219.086L563.367 209.141L572.164 197.742C573.191 196.41 574.128 195.011 574.969 193.555C580.367 184.18 581.5 173.062 578.148 162.187C574.504 150.67 566.621 140.966 556.094 135.039C534.305 122.461 507.32 128.266 495.937 147.961C495.096 149.418 494.352 150.929 493.711 152.484L464.117 140.305C465.3 137.433 466.673 134.643 468.227 131.953C488.422 96.9843 535.016 85.9296 572.078 107.32C589.609 117.282 602.705 133.527 608.719 152.773C614.187 170.601 612.867 189 605.016 205.117C645.695 248.086 669.305 302.969 673.508 364.687C677.867 428.687 661.148 495.453 625.164 557.758C589.18 620.062 539.695 667.914 482.07 696.141C426.492 723.359 367.125 730.367 309.562 716.633C295.883 736.859 272.836 747.945 248.703 747.945Z" fill="black"/>
<path d="M350.336 206.602C395.711 206.602 436.792 186.07 473.578 145.008C436.792 103.945 395.711 83.4141 350.336 83.4141C304.961 83.4141 263.88 103.945 227.094 145.008C263.88 186.07 304.961 206.602 350.336 206.602Z" fill="#89D66D"/>
<path d="M353.461 222.602C303.555 222.602 258.078 200.086 218.305 155.687L208.742 145.008L218.305 134.328C258.086 89.9219 303.555 67.4141 353.461 67.4141C403.367 67.4141 448.844 89.9297 488.617 134.328L498.18 145.008L488.617 155.687C448.844 200.094 403.367 222.602 353.461 222.602ZM252.344 145.008C266.281 158.719 280.852 169.422 295.805 176.891C313.7 185.906 333.458 190.602 353.496 190.602C373.534 190.602 393.293 185.906 411.188 176.891C426.141 169.414 440.711 158.719 454.648 145.008C440.711 131.297 426.141 120.594 411.188 113.125C393.292 104.11 373.534 99.4147 353.496 99.4147C333.459 99.4147 313.7 104.11 295.805 113.125C280.82 120.602 266.242 131.297 252.344 145.008Z" fill="black"/>
<path d="M336.617 132.734H455.016C457.349 132.734 459.586 133.661 461.236 135.311C462.886 136.961 463.812 139.198 463.812 141.531V147.93C463.812 150.263 462.886 152.5 461.236 154.15C459.586 155.8 457.349 156.727 455.016 156.727H336.617C334.284 156.727 332.047 155.8 330.397 154.15C328.747 152.5 327.82 150.263 327.82 147.93V141.531C327.82 139.198 328.747 136.961 330.397 135.311C332.047 133.661 334.284 132.734 336.617 132.734Z" fill="#015200"/>
<path d="M242.594 680.469C239.85 680.472 237.155 679.75 234.781 678.375C195.078 655.469 166.617 631.352 147.789 604.688C146.48 603.02 145.524 601.103 144.979 599.054C144.434 597.005 144.312 594.866 144.62 592.768C144.928 590.671 145.66 588.657 146.771 586.852C147.882 585.046 149.349 583.485 151.083 582.264C152.816 581.043 154.78 580.188 156.855 579.75C158.929 579.313 161.071 579.302 163.15 579.719C165.229 580.136 167.202 580.971 168.947 582.175C170.693 583.378 172.176 584.924 173.305 586.719C189.469 609.586 214.711 630.719 250.422 651.336C253.404 653.054 255.736 655.709 257.055 658.888C258.374 662.068 258.606 665.593 257.715 668.918C256.824 672.243 254.861 675.181 252.129 677.275C249.398 679.369 246.051 680.503 242.609 680.5L242.594 680.469Z" fill="black"/>
</svg>
