<svg width="800" height="800" viewBox="0 0 800 800" fill="none" xmlns="http://www.w3.org/2000/svg">
<path d="M400.547 368.906L366.719 427.578H434.453L400.547 368.906Z" fill="#843A5F"/>
<path d="M495 136.406H306.953L249.297 407.5L400.938 576.016L551.797 408.437L552.578 407.5L495 136.406Z" fill="#843A5F"/>
<path d="M233.125 513.125C233.125 557.466 250.739 599.991 282.093 631.344C313.447 662.698 355.972 680.312 400.313 680.312C444.653 680.312 487.178 662.698 518.532 631.344C549.886 599.991 567.5 557.466 567.5 513.125C567.5 468.784 549.886 426.259 518.532 394.906C487.178 363.552 444.653 345.938 400.313 345.938C355.972 345.938 313.447 363.552 282.093 394.906C250.739 426.259 233.125 468.784 233.125 513.125Z" fill="#AE9AA4"/>
<path d="M400.313 682.656C355 682.656 312.422 665 280.391 632.969C248.359 600.938 230.703 558.359 230.703 513.047C230.703 467.734 248.359 425.156 280.391 393.125C312.422 361.094 355 343.438 400.313 343.438C445.625 343.438 488.203 361.094 520.234 393.125C552.266 425.156 569.922 467.734 569.922 513.047C569.922 558.359 552.266 600.938 520.234 632.969C488.125 665 445.547 682.656 400.313 682.656ZM400.313 348.281C309.375 348.281 235.469 422.266 235.469 513.125C235.469 603.984 309.453 677.969 400.313 677.969C491.25 677.969 565.156 603.984 565.156 513.125C565.156 422.266 491.172 348.281 400.313 348.281Z" fill="#843A5F"/>
<path d="M400.313 451.562L345.234 356.328H455.312L400.313 451.562Z" fill="white"/>
<path d="M400.313 456.25L341.25 353.906H459.375L400.313 456.25ZM349.297 358.672L400.234 446.953L451.172 358.672H349.297ZM527.5 144.844L527.344 144.531C522.813 130.156 515.859 116.719 506.797 104.609L506.719 104.453C502.422 98.75 497.578 93.2813 492.344 88.2813C477.031 73.5938 458.203 62.6563 437.891 56.7188C425.703 53.125 413.047 51.3281 400.234 51.3281C389.062 51.3281 377.891 52.7344 367.188 55.4688C365.781 55.8594 364.688 56.0937 363.672 56.4062C342.734 62.3437 323.359 73.5156 307.656 88.75C286.719 108.984 273.203 134.844 268.672 163.438C267.578 170.313 267.031 177.422 267.031 184.531C267.031 196.328 268.594 207.969 271.641 219.219C273.203 225.156 275.234 231.016 277.656 236.562C298.594 285.859 346.719 317.656 400.313 317.656C449.922 317.656 495.078 290.391 518.203 246.563C521.563 240.313 524.375 233.594 526.641 226.797C531.172 213.203 533.516 198.984 533.516 184.531C533.516 171.016 531.484 157.656 527.5 144.844Z" fill="#843A5F"/>
<path d="M285.078 230C285.078 248.098 288.091 266.018 293.945 282.739C299.799 299.459 308.379 314.651 319.196 327.448C330.012 340.245 342.853 350.396 356.986 357.322C371.118 364.248 386.266 367.812 401.563 367.812C416.859 367.812 432.007 364.248 446.139 357.322C460.272 350.396 473.113 340.245 483.929 327.448C494.746 314.651 503.326 299.459 509.18 282.739C515.034 266.018 518.047 248.098 518.047 230C518.047 193.45 505.774 158.397 483.929 132.552C462.084 106.707 432.456 92.1875 401.563 92.1875C370.669 92.1875 341.041 106.707 319.196 132.552C297.351 158.397 285.078 193.45 285.078 230Z" fill="#E6D8DF"/>
<path d="M401.563 370.156C336.016 370.156 282.734 307.266 282.734 230C282.734 152.734 336.094 89.8438 401.563 89.8438C467.031 89.8438 520.391 152.734 520.391 230C520.391 307.266 467.109 370.156 401.563 370.156ZM401.563 94.5312C338.594 94.5312 287.422 155.312 287.422 230C287.422 304.687 338.672 365.469 401.563 365.469C464.531 365.469 515.703 304.687 515.703 230C515.703 155.312 464.531 94.5312 401.563 94.5312Z" fill="#843A5F"/>
<path d="M401.172 321.953C383.125 321.953 364.844 317.578 364.844 309.219H369.531C369.531 311.953 380.703 317.266 401.172 317.266C421.641 317.266 432.812 311.953 432.812 309.219H437.5C437.5 317.578 419.219 321.953 401.172 321.953Z" fill="#843A5F"/>
<path d="M585.938 721.172H215.234C210.078 721.172 205.859 716.953 205.859 711.797V418.359C205.859 413.203 210.078 408.984 215.234 408.984H585.938C591.094 408.984 595.312 413.203 595.312 418.359V711.797C595.312 716.953 591.094 721.172 585.938 721.172Z" fill="white"/>
<path d="M585.938 723.516H215.234C208.75 723.516 203.516 718.281 203.516 711.797V418.359C203.516 411.875 208.75 406.641 215.234 406.641H585.938C592.422 406.641 597.656 411.875 597.656 418.359V711.797C597.656 718.281 592.422 723.516 585.938 723.516ZM215.234 411.328C211.328 411.328 208.203 414.453 208.203 418.359V711.797C208.203 715.703 211.328 718.828 215.234 718.828H585.938C589.844 718.828 592.969 715.703 592.969 711.797V418.359C592.969 414.453 589.844 411.328 585.938 411.328H215.234Z" fill="#843A5F"/>
<path d="M224.766 585.859C214.688 599.922 198.281 599.922 188.203 585.859C178.125 571.797 178.125 549.062 188.203 535.078C198.281 521.016 214.688 521.016 224.766 535.078C234.844 549.062 234.844 571.797 224.766 585.859Z" fill="#E6D8DF"/>
<path d="M206.484 598.75C198.828 598.75 191.641 594.687 186.328 587.266C175.703 572.5 175.703 548.437 186.328 533.672C191.641 526.25 198.828 522.188 206.484 522.188C214.141 522.188 221.328 526.25 226.641 533.672C237.266 548.437 237.266 572.5 226.641 587.266C221.328 594.609 214.141 598.75 206.484 598.75ZM206.484 526.875C200.391 526.875 194.531 530.234 190.078 536.406C180.547 549.687 180.547 571.25 190.078 584.453C194.531 590.625 200.312 593.984 206.484 593.984C212.656 593.984 218.437 590.625 222.891 584.453C232.422 571.172 232.422 549.609 222.891 536.406C218.359 530.234 212.578 526.875 206.484 526.875Z" fill="#843A5F"/>
<path d="M613.906 585.859C603.828 599.922 587.422 599.922 577.344 585.859C567.266 571.797 567.266 549.062 577.344 535.078C587.422 521.016 603.828 521.016 613.906 535.078C623.984 549.062 623.984 571.797 613.906 585.859Z" fill="#E6D8DF"/>
<path d="M595.625 598.75C587.969 598.75 580.781 594.687 575.469 587.266C564.844 572.5 564.844 548.437 575.469 533.672C580.781 526.25 587.969 522.188 595.625 522.188C603.281 522.188 610.469 526.25 615.781 533.672C626.406 548.437 626.406 572.5 615.781 587.266C610.469 594.609 603.281 598.75 595.625 598.75ZM595.625 526.875C589.531 526.875 583.672 530.234 579.219 536.406C569.688 549.687 569.688 571.25 579.219 584.453C583.672 590.625 589.453 593.984 595.625 593.984C601.797 593.984 607.578 590.625 612.031 584.453C621.563 571.172 621.563 549.609 612.031 536.406C607.578 530.234 601.797 526.875 595.625 526.875Z" fill="#843A5F"/>
<path d="M496.328 107.422L455.469 84.6098L453.359 86.1723C449.453 83.7504 439.531 82.3442 414.609 84.1411C396.172 85.4692 377.734 87.9692 377.578 88.0473L377.266 88.1254L303.516 121.094L278.516 136.954L282.266 235.704C281.797 238.75 281.797 240.469 281.797 240.704V241.094L287.891 259.375L287.031 236.016C288.125 228.75 291.641 213.75 302.344 196.094C316.328 173.125 345.938 140.782 407.422 117.5C409.766 116.641 411.953 115.782 414.062 114.922L412.813 115.86H420C453.984 115.86 478.437 151.407 493.047 181.25C509.062 214.063 516.875 247.266 516.953 247.657L521.406 266.954L522.344 146.485L496.328 107.422Z" fill="#843A5F"/>
<path d="M446.875 250.547C446.875 253.924 449.32 257.163 453.671 259.551C458.022 261.94 463.924 263.281 470.078 263.281C476.232 263.281 482.134 261.94 486.485 259.551C490.837 257.163 493.281 253.924 493.281 250.547C493.281 247.17 490.837 243.93 486.485 241.542C482.134 239.154 476.232 237.812 470.078 237.812C463.924 237.812 458.022 239.154 453.671 241.542C449.32 243.93 446.875 247.17 446.875 250.547Z" fill="#FF9FB9"/>
<path d="M451.563 201.016C442.578 201.016 435.234 210.938 435.234 223.203C435.234 235.469 442.578 245.313 451.563 245.313C460.547 245.313 467.891 235.391 467.891 223.125C467.891 210.859 460.547 201.016 451.563 201.016Z" fill="#843A5F"/>
<path d="M444.531 227.969C444.531 228.984 444.713 229.99 445.066 230.929C445.42 231.867 445.938 232.72 446.591 233.438C447.244 234.156 448.019 234.726 448.872 235.114C449.725 235.503 450.639 235.703 451.562 235.703C452.486 235.703 453.4 235.503 454.253 235.114C455.106 234.726 455.881 234.156 456.534 233.438C457.187 232.72 457.705 231.867 458.059 230.929C458.412 229.99 458.594 228.984 458.594 227.969C458.594 226.953 458.412 225.947 458.059 225.009C457.705 224.071 457.187 223.218 456.534 222.5C455.881 221.782 455.106 221.212 454.253 220.823C453.4 220.434 452.486 220.234 451.562 220.234C450.639 220.234 449.725 220.434 448.872 220.823C448.019 221.212 447.244 221.782 446.591 222.5C445.938 223.218 445.42 224.071 445.066 225.009C444.713 225.947 444.531 226.953 444.531 227.969Z" fill="white"/>
<path d="M427.344 198.203C433.829 191.875 442.188 187.578 450.938 185.391C462.032 182.578 470.313 187.812 478.125 195.234C479.219 196.25 480.86 194.609 479.766 193.594C472.344 186.484 463.75 180.625 452.969 182.5C442.891 184.297 432.969 189.375 425.625 196.484C424.61 197.578 426.25 199.219 427.344 198.203Z" fill="#843A5F"/>
<path d="M309.922 250.547C309.922 252.219 310.522 253.875 311.688 255.42C312.854 256.965 314.563 258.369 316.718 259.551C318.873 260.734 321.43 261.672 324.246 262.312C327.061 262.952 330.078 263.281 333.125 263.281C336.172 263.281 339.189 262.952 342.004 262.312C344.82 261.672 347.377 260.734 349.532 259.551C351.687 258.369 353.396 256.965 354.562 255.42C355.728 253.875 356.328 252.219 356.328 250.547C356.328 248.875 355.728 247.219 354.562 245.674C353.396 244.129 351.687 242.725 349.532 241.542C347.377 240.36 344.82 239.422 342.004 238.782C339.189 238.142 336.172 237.812 333.125 237.812C330.078 237.812 327.061 238.142 324.246 238.782C321.43 239.422 318.873 240.36 316.718 241.542C314.563 242.725 312.854 244.129 311.688 245.674C310.522 247.219 309.922 248.875 309.922 250.547Z" fill="#FF9FB9"/>
<path d="M351.641 201.016C342.656 201.016 335.312 210.938 335.312 223.203C335.312 235.469 342.656 245.391 351.641 245.391C360.625 245.391 367.969 235.469 367.969 223.203C367.969 210.938 360.625 201.016 351.641 201.016Z" fill="#843A5F"/>
<path d="M344.609 227.969C344.609 230.02 345.35 231.987 346.669 233.438C347.987 234.888 349.776 235.703 351.641 235.703C353.505 235.703 355.294 234.888 356.612 233.438C357.931 231.987 358.672 230.02 358.672 227.969C358.672 225.917 357.931 223.95 356.612 222.5C355.294 221.049 353.505 220.234 351.641 220.234C349.776 220.234 347.987 221.049 346.669 222.5C345.35 223.95 344.609 225.917 344.609 227.969Z" fill="white"/>
<path d="M377.5 196.484C370.234 189.374 360.234 184.296 350.156 182.499C339.375 180.624 330.859 186.406 323.359 193.593C322.265 194.609 323.906 196.328 325 195.234C332.734 187.812 341.094 182.578 352.187 185.39C360.937 187.578 369.297 191.874 375.781 198.203C376.953 199.218 378.594 197.578 377.5 196.484Z" fill="#843A5F"/>
<path d="M301.25 534.531C301.25 547.499 303.804 560.34 308.767 572.321C313.73 584.302 321.003 595.188 330.173 604.358C339.343 613.528 350.229 620.802 362.21 625.764C374.191 630.727 387.032 633.281 400 633.281C412.968 633.281 425.809 630.727 437.79 625.764C449.771 620.802 460.657 613.528 469.827 604.358C478.997 595.188 486.27 584.302 491.233 572.321C496.196 560.34 498.75 547.499 498.75 534.531C498.75 508.341 488.346 483.224 469.827 464.704C451.308 446.185 426.19 435.781 400 435.781C373.81 435.781 348.692 446.185 330.173 464.704C311.654 483.224 301.25 508.341 301.25 534.531Z" fill="white"/>
<path d="M400 636.016C343.984 636.016 298.516 590.469 298.516 534.531C298.516 478.516 344.062 433.047 400 433.047C456.016 433.047 501.484 478.594 501.484 534.531C501.563 590.547 456.016 636.016 400 636.016ZM400 438.594C347.109 438.594 304.063 481.641 304.063 534.531C304.063 587.422 347.109 630.469 400 630.469C452.891 630.469 495.937 587.422 495.937 534.531C496.016 481.641 452.969 438.594 400 438.594Z" fill="#843A5F"/>
<path d="M498.75 534.531C498.75 589.063 454.531 633.281 400 633.281C345.469 633.281 301.328 589.063 301.328 534.531" fill="#E6D8DF"/>
<path d="M400 636.016C343.984 636.016 298.516 590.469 298.516 534.531H304.063C304.063 587.422 347.109 630.469 400 630.469C452.891 630.469 495.937 587.422 495.937 534.531H501.484C501.563 590.547 456.016 636.016 400 636.016Z" fill="#843A5F"/>
<path d="M442.344 593.75H436.719C436.719 573.516 420.234 557.031 400 557.031C379.766 557.031 363.281 573.516 363.281 593.75H357.734C357.734 570.469 376.719 551.484 400 551.484C423.281 551.484 442.344 570.469 442.344 593.75Z" fill="#843A5F"/>
<path d="M340.781 517.578V512.031C361.016 512.031 377.5 495.547 377.5 475.312H383.047C383.047 498.594 364.062 517.578 340.781 517.578ZM459.297 517.578C436.016 517.578 417.031 498.594 417.031 475.312H422.578C422.578 495.547 439.063 512.031 459.297 512.031V517.578Z" fill="#843A5F"/>
<path d="M338.516 698.75L313.281 655H363.75L338.516 698.75ZM400.547 698.75L375.312 655H425.781L400.547 698.75ZM461.562 698.75L436.25 655H486.797L461.562 698.75Z" fill="#843A5F"/>
</svg>
