<svg width="800" height="800" viewBox="0 0 800 800" fill="none" xmlns="http://www.w3.org/2000/svg">
<path d="M363.102 735.797C305.289 735.797 276.664 707.14 268.211 680.664C142.578 607.601 96.7344 491.289 109.672 376.976C126.276 230.278 223.151 174.289 400.297 209.008C577.469 174.299 674.344 230.289 690.922 376.976C706.898 518.125 630.539 682.179 417.773 734.789C385.789 735.461 367.565 735.797 363.102 735.797Z" fill="white"/>
<path d="M363.102 735.797C305.289 735.797 320.672 707.141 312.219 680.665C234.281 605.665 160.656 497.633 171.289 403.375C184.281 288.532 223.156 191.883 400.328 226.586C577.5 191.883 674.383 230.274 690.953 376.977C706.93 518.125 630.57 682.18 417.805 734.79C385.799 735.461 367.565 735.797 363.102 735.797Z" fill="#FFD2D1"/>
<path d="M296.258 705.266C432.164 617.802 500.109 512.005 500.094 387.875C500.094 326.938 491.904 264.412 475.523 200.297C612.794 189.547 688.661 248.446 703.125 376.992C719.031 518.141 642.969 682.196 431.117 734.805C399.221 735.482 381.052 735.821 376.609 735.821C337.117 735.813 311.289 722.305 296.258 705.266Z" fill="#FF9EBB"/>
<path d="M279.547 421.375C279.414 425.616 277.602 429.631 274.509 432.537C271.416 435.442 267.296 437 263.055 436.867C258.813 436.734 254.798 434.922 251.893 431.829C248.988 428.737 247.43 424.616 247.563 420.375C252.008 278.039 313.141 198.742 429 188.5C433.207 188.165 437.375 189.505 440.598 192.229C443.821 194.953 445.838 198.839 446.209 203.043C446.58 207.246 445.275 211.426 442.579 214.672C439.882 217.919 436.013 219.968 431.812 220.375C333.594 229.054 283.523 294.039 279.547 421.375Z" fill="black"/>
<path d="M675.093 378.773C659.64 242.242 572.093 191.648 403.406 224.687L400.328 225.289L397.25 224.687C228.562 191.641 141 242.242 125.562 378.773C112.281 495.82 163.671 601.359 276.242 666.828L281.57 669.953L283.445 675.82C291.585 701.336 318.843 719.82 363.132 719.82C367.343 719.82 385.968 721.898 415.742 718.844C599.343 672.703 692.546 532.984 675.093 378.773ZM400.328 192.695C584.078 157.601 689.226 219.187 706.882 375.18C726.171 545.601 622.289 700.719 421.679 750.312L406.25 752.344C384.375 753.125 367.187 752.344 363.101 751.797C308.82 744.523 269.664 727.484 255.125 691.516C134.921 619.336 79.3198 502.914 93.7495 375.18C111.429 219.18 216.585 157.601 400.328 192.695Z" fill="black"/>
<path d="M418.336 205.727C418.836 177.704 426.93 142.024 450.258 114.204C492.445 63.946 564.648 55.0788 580.594 68.4538C596.539 81.8288 600.336 154.446 558.148 204.688L557.094 205.923C518.87 196.766 472.617 196.701 418.336 205.727Z" fill="#89D66D"/>
<path d="M428.758 219.415C427.123 219.418 425.527 218.92 424.184 217.989C422.841 217.057 421.816 215.737 421.246 214.205C420.676 212.674 420.588 211.004 420.995 209.421C421.403 207.839 422.285 206.419 423.523 205.352L528.867 114.235C529.662 113.548 530.584 113.024 531.581 112.693C532.578 112.362 533.631 112.23 534.679 112.306C535.727 112.382 536.749 112.663 537.689 113.134C538.628 113.605 539.465 114.257 540.152 115.051C540.84 115.846 541.364 116.768 541.695 117.765C542.026 118.763 542.157 119.815 542.081 120.863C542.005 121.911 541.724 122.934 541.253 123.873C540.782 124.812 540.13 125.649 539.336 126.337L433.984 217.462C432.534 218.721 430.678 219.415 428.758 219.415Z" fill="#015200"/>
<path d="M550.781 185.852C564.844 166.563 573.125 142.884 575.258 118.977C577.086 98.5085 573.508 81.0242 570.336 78.3523C567.164 75.6804 549.305 75.2273 529.453 80.5554C503.727 87.5007 479.531 101.876 462.5 122.149C448.133 139.259 439.266 161.384 435.875 184.649C479.172 179.019 517.474 179.42 550.781 185.852ZM402.344 203.126C403 166.407 414.594 129.493 438.008 101.563C479.5 52.1413 562.227 29.8288 590.883 53.8445C619.539 77.8601 611.906 163.219 570.414 212.634L569.219 214.04L562.859 221.415L553.391 219.149C517.453 210.555 473.313 210.555 420.969 219.149L402.008 222.274L402.344 203.126Z" fill="black"/>
<path d="M360.711 210.313C327.732 204.615 299.633 204.659 276.414 210.445L275.773 209.664C250.141 177.844 252.453 131.867 262.141 123.398C271.828 114.93 315.687 120.547 341.32 152.344C355.469 169.984 360.406 192.57 360.711 210.313Z" fill="#89D66D"/>
<path d="M350.782 211.125C348.83 211.127 346.945 210.413 345.485 209.117L287.633 157.922C286.044 156.516 285.078 154.537 284.949 152.419C284.819 150.301 285.536 148.218 286.942 146.629C288.348 145.04 290.327 144.074 292.445 143.945C294.563 143.815 296.645 144.532 298.235 145.938L356.086 197.133C357.303 198.209 358.163 199.63 358.553 201.207C358.942 202.784 358.842 204.442 358.266 205.961C357.691 207.48 356.666 208.788 355.329 209.71C353.992 210.633 352.406 211.126 350.782 211.125Z" fill="#015200"/>
<path d="M368.875 216.719L359.375 215.07C327.656 209.601 300.398 209.601 278.375 215.07L273.437 216.304L270.226 212.398L269.523 211.539C252.984 191.008 248.765 167.5 247.726 155.289C246.453 140.406 248.18 121.797 256.859 114.211C263.273 108.601 274.133 108.258 282.109 108.953C301.375 110.64 328.68 120.773 347.531 144.187C365.398 166.406 368.469 193.101 368.703 207.031L368.875 216.719ZM276.398 124.734C270.68 124.734 267.906 125.898 267.398 126.297C265.484 128.086 262.305 138.461 263.711 154.258C264.57 163.937 267.797 182.031 279.609 198.375C300.312 194.054 324.617 193.836 352.062 197.719C350.703 185.929 346.664 168.617 335.094 154.242C319.797 135.25 297.547 126.695 281.828 125.023C280.024 124.831 278.212 124.734 276.398 124.734Z" fill="black"/>
<path d="M389.797 204.547C385.786 204.553 381.919 203.047 378.969 200.329C314.844 141.329 264.883 106.063 230.579 95.4849C228.544 94.8894 226.647 93.8954 225 92.5606C223.352 91.2258 221.987 89.577 220.982 87.7098C219.978 85.8426 219.354 83.7944 219.148 81.6841C218.942 79.5739 219.157 77.4438 219.782 75.4175C220.406 73.3912 221.427 71.5093 222.785 69.881C224.143 68.2527 225.811 66.9106 227.692 65.9326C229.574 64.9546 231.63 64.3603 233.743 64.1842C235.856 64.0081 237.983 64.2537 240 64.9068C279.446 77.063 331.985 113.649 400.633 176.766C403.006 178.947 404.666 181.793 405.394 184.933C406.122 188.073 405.885 191.359 404.713 194.361C403.542 197.364 401.492 199.943 398.83 201.761C396.169 203.578 393.02 204.549 389.797 204.547Z" fill="black"/>
</svg>
