<svg width="800" height="800" viewBox="0 0 800 800" fill="none" xmlns="http://www.w3.org/2000/svg">
<path d="M511.797 240.313C511.797 240.313 528.906 205.938 531.328 191.328C531.328 191.328 546.641 152.5 531.328 142.578C531.328 142.578 525.469 122.656 515.703 133.672L494.688 153.672L511.797 240.313Z" fill="white"/>
<path d="M510.781 247.5L492.031 152.812L513.906 131.953C516.797 128.672 519.844 127.422 522.969 128.125C528.906 129.453 532.266 138.203 533.203 141.016C548.281 152.187 534.844 188.281 533.516 191.875C530.938 206.719 514.531 239.844 513.828 241.25L510.781 247.5ZM497.188 154.453L512.734 232.969C517.734 222.422 527.266 201.328 528.984 190.937L529.063 190.703L529.141 190.469C533.203 180.156 541.25 151.797 530.078 144.531L529.375 144.062L529.141 143.203C528.203 140.078 525.312 133.437 522.109 132.734C520.781 132.422 519.219 133.281 517.5 135.234L517.344 135.391L497.188 154.453Z" fill="#843A5F"/>
<path d="M294.609 233.437C294.609 233.437 239.453 190.234 255.078 172.5C255.078 172.5 263.75 130.859 278.672 128.75L283.828 117.969L308.125 134.453L294.609 233.437Z" fill="white"/>
<path d="M296.406 237.812L293.203 235.313C291.484 233.984 252.031 202.812 250.078 181.797C249.687 177.812 250.703 174.297 252.969 171.484C254.297 165.156 262.422 130.625 277.109 126.719L282.969 114.531L310.703 133.359L296.406 237.812ZM284.844 121.484L280.312 130.938L279.062 131.094C268.203 132.578 259.765 161.875 257.422 172.969L257.265 173.594L256.875 174.062C255.156 176.016 254.453 178.359 254.765 181.328C256.25 197.109 283.437 221.094 292.89 228.984L305.625 135.625L284.844 121.484Z" fill="#843A5F"/>
<path d="M232.5 508.828C232.5 530.784 236.824 552.524 245.226 572.808C253.628 593.092 265.943 611.523 281.468 627.048C296.993 642.572 315.423 654.887 335.708 663.289C355.992 671.691 377.732 676.016 399.688 676.016C421.643 676.016 443.383 671.691 463.667 663.289C483.952 654.887 502.382 642.572 517.907 627.048C533.432 611.523 545.747 593.092 554.149 572.808C562.551 552.524 566.875 530.784 566.875 508.828C566.875 486.873 562.551 465.132 554.149 444.848C545.747 424.564 533.432 406.134 517.907 390.609C502.382 375.084 483.952 362.769 463.667 354.367C443.383 345.965 421.643 341.641 399.688 341.641C377.732 341.641 355.992 345.965 335.708 354.367C315.423 362.769 296.993 375.084 281.468 390.609C265.943 406.134 253.628 424.564 245.226 444.848C236.824 465.132 232.5 486.873 232.5 508.828Z" fill="#AE9AA4"/>
<path d="M399.688 678.359C354.375 678.359 311.797 660.703 279.766 628.672C247.734 596.641 230.078 554.063 230.078 508.75C230.078 463.438 247.734 420.859 279.766 388.828C311.797 356.797 354.375 339.141 399.688 339.141C445 339.141 487.578 356.797 519.609 388.828C551.641 420.859 569.297 463.438 569.297 508.75C569.297 554.063 551.641 596.641 519.609 628.672C487.5 660.703 444.922 678.359 399.688 678.359ZM399.688 343.906C308.75 343.906 234.844 417.891 234.844 508.75C234.844 599.688 308.828 673.594 399.688 673.594C490.547 673.594 564.531 599.609 564.531 508.75C564.531 417.891 490.547 343.906 399.688 343.906Z" fill="#843A5F"/>
<path d="M399.688 447.266L344.609 351.953H454.687L399.688 447.266Z" fill="white"/>
<path d="M399.688 451.953L340.625 349.609H458.828L399.688 451.953ZM348.672 354.297L399.609 442.578L450.547 354.297H348.672Z" fill="#843A5F"/>
<path d="M400.781 353.438L366.875 412.187H434.688L400.781 353.438Z" fill="#843A5F"/>
<path d="M289.062 138.828V290.156C289.062 324.141 316.875 351.953 350.859 351.953H450.703C484.688 351.953 512.5 324.141 512.5 290.156V138.828" fill="#E6D8DF"/>
<path d="M450.625 354.297H350.859C315.469 354.297 286.719 325.547 286.719 290.156V138.828H291.406V290.156C291.406 322.969 318.047 349.609 350.859 349.609H450.703C483.516 349.609 510.156 322.969 510.156 290.156V138.828H514.844V290.156C514.844 325.547 486.016 354.297 450.625 354.297Z" fill="#843A5F"/>
<path d="M284.688 202.969C284.688 217.038 290.276 230.53 300.225 240.479C310.173 250.427 323.665 256.016 337.734 256.016C351.803 256.016 365.296 250.427 375.244 240.479C385.192 230.53 390.781 217.038 390.781 202.969C390.781 188.9 385.192 175.407 375.244 165.459C365.296 155.511 351.803 149.922 337.734 149.922C323.665 149.922 310.173 155.511 300.225 165.459C290.276 175.407 284.688 188.9 284.688 202.969Z" fill="white"/>
<path d="M337.734 258.437C307.187 258.437 282.344 233.594 282.344 203.047C282.344 172.5 307.187 147.656 337.734 147.656C368.281 147.656 393.125 172.5 393.125 203.047C393.125 233.594 368.359 258.437 337.734 258.437ZM337.734 152.266C309.766 152.266 287.031 175 287.031 202.969C287.031 230.937 309.766 253.672 337.734 253.672C365.703 253.672 388.438 230.937 388.438 202.969C388.438 175 365.703 152.266 337.734 152.266Z" fill="#843A5F"/>
<path d="M410.234 202.969C410.234 217.038 415.823 230.53 425.771 240.479C435.72 250.427 449.212 256.016 463.281 256.016C477.35 256.016 490.843 250.427 500.791 240.479C510.739 230.53 516.328 217.038 516.328 202.969C516.328 196.003 514.956 189.105 512.29 182.669C509.624 176.233 505.717 170.385 500.791 165.459C495.865 160.533 490.017 156.626 483.581 153.96C477.145 151.294 470.247 149.922 463.281 149.922C456.315 149.922 449.417 151.294 442.981 153.96C436.545 156.626 430.697 160.533 425.771 165.459C420.846 170.385 416.938 176.233 414.272 182.669C411.606 189.105 410.234 196.003 410.234 202.969Z" fill="white"/>
<path d="M463.281 258.437C432.734 258.437 407.891 233.594 407.891 203.047C407.891 172.5 432.734 147.656 463.281 147.656C493.828 147.656 518.672 172.5 518.672 203.047C518.672 233.594 493.828 258.437 463.281 258.437ZM463.281 152.266C435.313 152.266 412.578 175 412.578 202.969C412.578 230.937 435.313 253.672 463.281 253.672C491.25 253.672 513.984 230.937 513.984 202.969C513.984 175 491.25 152.266 463.281 152.266Z" fill="#843A5F"/>
<path d="M415.938 214.532H411.25C411.25 208.751 406.562 204.063 400.781 204.063C395 204.063 390.312 208.751 390.312 214.532H385.625C385.625 206.173 392.422 199.376 400.781 199.376C409.141 199.298 415.938 206.173 415.938 214.532ZM400.547 343.204C393.984 343.204 386.25 341.641 386.25 337.188H390.937C390.937 336.876 390.781 336.641 390.781 336.563C391.328 337.188 394.922 338.438 400.547 338.438C406.172 338.438 409.766 337.188 410.313 336.563C410.234 336.641 410.156 336.798 410.156 337.188H414.844C414.844 341.641 407.188 343.204 400.547 343.204Z" fill="#843A5F"/>
<path d="M297.188 68.5156C297.188 68.5156 251.797 89.2969 289.063 134.844C289.063 134.844 274.375 150 362.5 142.969C362.5 142.969 393.438 149.766 422.109 146.484C422.109 146.484 472.578 150.859 512.5 139.453C512.5 139.453 523.594 116.641 516.406 113.75C509.219 110.859 513.984 89.6875 460.938 95.5469C460.938 95.5469 428.828 64.2969 395.938 74.1406C395.938 74.1406 362.188 69.4531 342.188 86.4844C342.031 86.3281 299.766 102.031 297.188 68.5156Z" fill="white"/>
<path d="M405.078 149.688C383.828 149.688 365.234 145.938 362.344 145.313C336.015 147.422 316.25 147.734 303.515 146.25C293.437 145.078 287.969 142.891 286.328 139.297C285.547 137.734 285.781 136.172 286.25 135C274.453 120.156 270 106.25 272.89 93.5938C277.109 75.2344 295.469 66.6406 296.25 66.3281L299.297 64.9219L299.531 68.2813C300.078 75.7813 302.89 81.1719 307.734 84.2188C318.906 91.3281 337.969 85.1563 340.859 84.2188C360.312 68.0469 391.172 71.0156 395.625 71.5625C426.719 62.6563 456.328 88.0469 461.64 92.9688C502.734 88.6719 509.922 100.703 514.297 107.891C515.39 109.688 516.25 111.094 517.187 111.484C518.672 112.109 519.844 113.281 520.469 114.922C523.203 122.109 515.469 138.516 514.531 140.391L514.062 141.328L513.047 141.641C474.609 152.656 425.937 149.062 422.031 148.75C416.406 149.453 410.625 149.688 405.078 149.688ZM362.656 140.547L362.969 140.625C363.281 140.703 393.828 147.344 421.797 144.062H422.265C422.734 144.141 471.953 148.203 510.781 137.422C513.75 131.016 517.578 120.469 516.094 116.641C515.859 116.094 515.625 115.938 515.469 115.859C513.047 114.844 511.719 112.656 510.312 110.391C506.484 104.063 500.156 93.5156 461.094 97.8125L460 97.9688L459.219 97.1875C458.906 96.875 427.656 67.0312 396.484 76.3281L396.015 76.4844L395.547 76.4063C395.234 76.3281 362.578 72.1094 343.594 88.2031L343.281 88.4375L342.89 88.5938C341.953 88.9844 319.297 97.2656 305.234 88.2813C299.922 84.8438 296.562 79.5313 295.312 72.2656C290.312 75.3125 280.234 82.8125 277.5 94.7656C274.844 106.25 279.375 119.219 290.937 133.359L292.265 135L290.781 136.484C290.703 136.562 290.39 136.953 290.625 137.344C291.328 138.75 298.203 145.703 362.344 140.625L362.656 140.547Z" fill="#843A5F"/>
<path d="M585.312 716.875H214.609C209.453 716.875 205.234 712.656 205.234 707.5V414.062C205.234 408.906 209.453 404.688 214.609 404.688H585.312C590.469 404.688 594.688 408.906 594.688 414.062V707.5C594.688 712.656 590.469 716.875 585.312 716.875Z" fill="white"/>
<path d="M585.312 719.219H214.609C208.125 719.219 202.891 713.984 202.891 707.5V414.062C202.891 407.578 208.125 402.344 214.609 402.344H585.312C591.797 402.344 597.031 407.578 597.031 414.062V707.5C597.031 713.984 591.797 719.219 585.312 719.219ZM214.609 407.031C210.703 407.031 207.578 410.156 207.578 414.062V707.5C207.578 711.406 210.703 714.531 214.609 714.531H585.312C589.219 714.531 592.344 711.406 592.344 707.5V414.062C592.344 410.156 589.219 407.031 585.312 407.031H214.609Z" fill="#843A5F"/>
<path d="M224.141 581.562C214.062 595.625 197.656 595.625 187.578 581.562C177.5 567.5 177.5 544.766 187.578 530.781C197.656 516.719 214.062 516.719 224.141 530.781C234.219 544.766 234.219 567.5 224.141 581.562Z" fill="#E6D8DF"/>
<path d="M205.859 594.375C198.203 594.375 191.016 590.312 185.703 582.891C175.078 568.125 175.078 544.063 185.703 529.297C191.016 521.875 198.203 517.812 205.859 517.812C213.516 517.812 220.703 521.875 226.016 529.297C236.641 544.063 236.641 568.125 226.016 582.891C220.703 590.312 213.516 594.375 205.859 594.375ZM205.859 522.5C199.766 522.5 193.906 525.859 189.453 532.031C179.922 545.313 179.922 566.875 189.453 580.078C193.906 586.25 199.688 589.609 205.859 589.609C211.953 589.609 217.813 586.25 222.266 580.078C231.797 566.797 231.797 545.234 222.266 532.031C217.734 525.938 211.953 522.5 205.859 522.5Z" fill="#843A5F"/>
<path d="M613.281 581.562C603.203 595.625 586.797 595.625 576.719 581.562C566.641 567.5 566.641 544.766 576.719 530.781C586.797 516.719 603.203 516.719 613.281 530.781C623.359 544.766 623.359 567.5 613.281 581.562Z" fill="#E6D8DF"/>
<path d="M595 594.375C587.344 594.375 580.156 590.312 574.844 582.891C564.219 568.125 564.219 544.063 574.844 529.297C580.156 521.875 587.344 517.812 595 517.812C602.656 517.812 609.844 521.875 615.156 529.297C625.781 544.063 625.781 568.125 615.156 582.891C609.844 590.312 602.656 594.375 595 594.375ZM595 522.5C588.906 522.5 583.047 525.859 578.594 532.031C569.062 545.313 569.062 566.875 578.594 580.078C583.047 586.25 588.828 589.609 595 589.609C601.094 589.609 606.953 586.25 611.406 580.078C620.937 566.797 620.937 545.234 611.406 532.031C606.953 525.938 601.172 522.5 595 522.5Z" fill="#843A5F"/>
<path d="M397.266 286.25C397.266 286.25 362.422 280.469 351.641 291.563C351.641 291.563 337.969 303.828 345.547 319.297L348.516 328.906L363.36 323.047L368.828 333.906L372.813 321.016C373.281 319.453 375.625 319.531 375.938 321.172L377.656 330.235L387.344 318.281L404.61 332.969L406.719 319.453L416.719 328.281L425.703 318.281L429.063 330.781L440.391 318.281L450.156 331.172L456.641 320C456.641 320 466.641 305.156 458.438 296.953C458.438 296.953 457.031 282.891 446.094 283.672L397.266 286.25Z" fill="white"/>
<path d="M369.375 340.078L362.266 325.937L347.031 331.953L343.438 320.156C335.625 304.062 348.906 291.015 350 289.922C361.094 278.515 393.906 283.359 397.422 283.906L445.86 281.406C455.781 280.703 459.688 290.234 460.547 296.015C468.75 305.312 459.375 320.078 458.516 321.328L450.313 335.468L440.156 322.031L427.813 335.625L424.531 323.125L416.875 331.562L408.36 324.062L406.25 337.422L387.656 321.64L376.25 335.625L374.141 324.531L369.375 340.078ZM387.031 314.922L402.891 328.437L405 314.843L416.485 324.922L426.797 313.437L430.156 325.937L440.469 314.531L449.844 326.875L454.61 318.672C454.688 318.515 463.36 305.312 456.641 298.593L456.016 297.968L455.938 297.109C455.86 296.64 454.61 285.312 446.172 285.937L397.188 288.515L396.953 288.437C387.578 286.875 361.485 284.687 353.438 293.047L353.281 293.125C352.813 293.593 341.016 304.453 347.735 318.047L347.891 318.437L350.078 325.547L364.531 319.843L368.36 327.422L370.625 320.156C371.172 318.359 372.735 317.265 374.61 317.343C376.485 317.422 377.891 318.75 378.281 320.547L379.063 324.687L387.031 314.922Z" fill="#843A5F"/>
<path d="M507.5 677.969H293.672C288.516 677.969 284.297 673.75 284.297 668.594V454.766C284.297 449.609 288.516 445.391 293.672 445.391H507.422C512.578 445.391 516.797 449.609 516.797 454.766V668.516C516.875 673.75 512.656 677.969 507.5 677.969Z" fill="white"/>
<path d="M507.5 680.313H293.672C287.187 680.313 281.953 675.078 281.953 668.594V454.766C281.953 448.281 287.187 443.047 293.672 443.047H507.422C513.906 443.047 519.141 448.281 519.141 454.766V668.516C519.219 675 513.906 680.313 507.5 680.313ZM293.672 447.734C289.766 447.734 286.641 450.859 286.641 454.766V668.516C286.641 672.422 289.766 675.547 293.672 675.547H507.422C511.328 675.547 514.453 672.422 514.453 668.516V454.766C514.453 450.859 511.328 447.734 507.422 447.734H293.672Z" fill="#843A5F"/>
<path d="M302.813 629.531L299.062 626.719L350.781 557.734L375.625 591.016L425.469 524.531L450.391 557.734L498.359 493.828L502.109 496.641L450.391 565.547L425.469 532.344L375.625 598.828L350.781 565.547L302.813 629.531Z" fill="#843A5F"/>
</svg>
