<svg width="800" height="800" viewBox="0 0 800 800" fill="none" xmlns="http://www.w3.org/2000/svg">
<path d="M193.922 122.836H607.711C628.717 122.836 648.862 131.181 663.716 146.034C678.569 160.887 686.914 181.033 686.914 202.039V598.797C686.912 619.801 678.566 639.945 663.713 654.797C648.86 669.649 628.716 677.992 607.711 677.992H193.922C172.917 677.992 152.773 669.649 137.92 654.797C123.066 639.945 114.721 619.801 114.719 598.797V202.039C114.719 181.033 123.063 160.887 137.917 146.034C152.77 131.181 172.916 122.836 193.922 122.836Z" fill="white"/>
<path d="M686.914 553.992V606.789C686.912 617.191 684.861 627.491 680.878 637.101C676.896 646.71 671.06 655.441 663.703 662.795C656.346 670.149 647.612 675.982 638.001 679.961C628.39 683.94 618.09 685.986 607.688 685.984H255.57C245.168 685.987 234.866 683.941 225.254 679.963C215.642 675.985 206.908 670.152 199.55 662.798C192.192 655.444 186.355 646.712 182.372 637.102C178.389 627.492 176.338 617.192 176.336 606.789V553.992H686.914Z" fill="#87BDFF"/>
<path d="M255.57 122.836H607.688C618.09 122.834 628.39 124.881 638.001 128.86C647.612 132.838 656.346 138.671 663.703 146.025C671.06 153.379 676.896 162.11 680.878 171.72C684.861 181.329 686.912 191.629 686.914 202.031V518.797C686.912 529.199 684.861 539.499 680.878 549.108C676.896 558.718 671.06 567.449 663.703 574.803C656.346 582.157 647.612 587.99 638.001 591.969C628.39 595.947 618.09 597.994 607.688 597.992H255.57C211.812 597.992 177.344 603.125 177.344 586.719L176.336 202.031C176.338 191.628 178.389 181.328 182.372 171.718C186.355 162.108 192.192 153.377 199.55 146.022C206.908 138.668 215.642 132.836 225.254 128.857C234.866 124.879 245.168 122.833 255.57 122.836Z" fill="#CBE1FF"/>
<path d="M442.25 122.836H632.273C662.453 122.836 686.914 158.289 686.914 202.031V518.797C686.914 562.547 662.453 597.992 632.273 597.992H442.25V122.836Z" fill="#76B2FF"/>
<path d="M217.578 286.438C257.523 235.32 322.742 202.062 396.414 202.062C467.891 202.062 531.398 233.391 571.602 281.937L494.344 349.781C474.281 319.25 437.93 298.852 396.414 298.852C352.664 298.852 314.648 321.508 295.391 354.789L217.578 286.438Z" fill="white"/>
<path d="M610.156 691.211H194.164C168.711 691.186 144.307 681.064 126.309 663.066C108.311 645.068 98.1889 620.664 98.1641 595.211V515.203H130.195V595.203C130.212 612.172 136.96 628.441 148.959 640.44C160.957 652.438 177.227 659.187 194.195 659.203H610.156C627.125 659.187 643.394 652.438 655.393 640.44C667.391 628.441 674.14 612.172 674.156 595.203V515.203H706.187V595.203C706.165 620.663 696.039 645.073 678.034 663.074C660.029 681.075 635.616 691.194 610.156 691.211Z" fill="black"/>
<path d="M610.937 611.211H193.359C168.12 611.18 143.924 601.139 126.078 583.292C108.232 565.444 98.193 541.247 98.1641 516.008V202.391C98.193 177.151 108.232 152.954 126.078 135.107C143.924 117.259 168.12 107.219 193.359 107.188H610.937C636.181 107.212 660.383 117.25 678.234 135.098C696.086 152.947 706.127 177.147 706.156 202.391V516.008C706.127 541.251 696.086 565.452 678.234 583.3C660.383 601.148 636.181 611.186 610.937 611.211ZM193.359 139.188C176.603 139.208 160.539 145.874 148.691 157.722C136.842 169.571 130.177 185.634 130.156 202.391V516.008C130.177 532.764 136.842 548.828 148.691 560.676C160.539 572.525 176.603 579.19 193.359 579.211H610.937C627.694 579.19 643.758 572.525 655.606 560.676C667.454 548.828 674.12 532.764 674.141 516.008V202.391C674.12 185.634 667.454 169.571 655.606 157.722C643.758 145.874 627.694 139.208 610.937 139.188H193.359Z" fill="black"/>
<path d="M299.477 379.648L195.672 288.484L204.977 276.562C226.453 249.078 254.977 226.281 287.406 210.633C321.447 194.379 358.7 185.965 396.422 186.008C433.059 185.863 469.278 193.796 502.5 209.242C534.164 223.992 562.32 245.586 583.937 271.68L593.852 283.648L491.078 373.914L480.977 358.539C472.118 345.247 460.065 334.392 445.922 326.969C430.653 318.955 413.658 314.792 396.414 314.844C359.75 314.844 326.352 333.219 309.242 362.797L299.477 379.648ZM239.945 284.789L292.469 330.883C316.914 300.844 355.18 282.797 396.375 282.797C418.871 282.756 441.035 288.216 460.937 298.703C474.356 305.806 486.421 315.215 496.578 326.5L548.922 280.562C531.647 262.977 511.339 248.654 488.977 238.281C459.984 224.817 428.38 217.908 396.414 218.047C363.504 217.996 331.001 225.324 301.297 239.492C278.177 250.591 257.362 265.957 239.945 284.781V284.789Z" fill="black"/>
<path d="M396.414 237.227C398.727 237.227 401.016 237.682 403.153 238.567C405.289 239.452 407.231 240.749 408.866 242.384C410.501 244.019 411.798 245.961 412.683 248.097C413.568 250.234 414.023 252.523 414.023 254.836V289.992C414.023 294.662 412.168 299.141 408.866 302.444C405.563 305.746 401.084 307.602 396.414 307.602C391.744 307.602 387.265 305.746 383.962 302.444C380.66 299.141 378.805 294.662 378.805 289.992V254.836C378.805 252.523 379.26 250.234 380.145 248.097C381.03 245.961 382.327 244.019 383.962 242.384C385.598 240.749 387.539 239.452 389.675 238.567C391.812 237.682 394.102 237.227 396.414 237.227Z" fill="black"/>
</svg>
