<svg width="800" height="800" viewBox="0 0 800 800" fill="none" xmlns="http://www.w3.org/2000/svg">
<path d="M530.844 705.672H266.711C250.53 705.675 234.506 702.491 219.555 696.301C204.605 690.112 191.019 681.038 179.575 669.599C168.131 658.159 159.052 644.577 152.857 629.629C146.662 614.68 143.472 598.658 143.469 582.477V336.102H654.047V582.461C654.048 598.641 650.862 614.663 644.671 629.611C638.48 644.56 629.405 658.142 617.964 669.584C606.524 681.025 592.942 690.101 577.993 696.293C563.045 702.485 547.024 705.672 530.844 705.672ZM178.68 248.117C235.938 148.391 303.477 115.148 381.156 151.32C458.992 181.625 497.867 165.008 495.594 98.5234C592.359 159.641 627.148 209.5 601.227 248.109L178.68 248.117Z" fill="white"/>
<path d="M266.711 248.117C295.258 200.094 266.711 150.844 470.867 173.328C515.328 178.227 497.867 165.016 495.586 98.5391C592.352 159.656 627.141 209.516 601.219 248.125L266.711 248.117Z" fill="#F6FD8E"/>
<path d="M213.898 336.102H583.594V582.469C583.594 598.648 580.407 614.669 574.215 629.617C568.024 644.564 558.949 658.146 547.508 669.586C536.068 681.027 522.486 690.102 507.538 696.294C492.591 702.485 476.57 705.672 460.391 705.672H337.094C304.418 705.672 273.081 692.692 249.976 669.586C226.871 646.481 213.891 615.144 213.891 582.469L213.898 336.102Z" fill="#F3DCFF"/>
<path d="M433.969 336.102H654.047V595.633C654.047 624.817 642.454 652.806 621.817 673.442C601.181 694.078 573.192 705.672 544.008 705.672C514.824 705.672 486.835 694.078 466.198 673.442C445.562 652.806 433.969 624.817 433.969 595.633V336.102Z" fill="#FF80DD"/>
<path d="M99.4531 256.914H698.055V336.109H99.4531V256.914Z" fill="#F4E6FF"/>
<path d="M614.508 257.031L587.945 239.195C593.102 231.508 594.633 223.773 592.742 214.836C589.148 197.805 571.367 169.266 509.742 126.977C506.187 146.437 497.75 160.977 484.523 170.359C461.008 187.031 425.297 185.687 375.352 166.234L374.406 165.828C339.953 149.781 308.781 148.914 279.219 163.172C248.672 177.883 219.531 209.141 192.555 256.086L164.844 240.148C195.078 187.5 228.906 151.867 265.359 134.344C303.469 115.992 344.547 116.75 387.461 136.594C435.211 155.109 456.555 150.984 466.047 144.25C475.852 137.297 480.422 122.094 479.641 99.0703L478.609 68.8438L504.18 84.9922C577.086 131.039 616.313 171.344 624.094 208.219C627.742 225.687 624.531 242.109 614.508 257.031Z" fill="black"/>
<path d="M674.102 350.711H126.906C115.665 350.699 104.888 346.228 96.9397 338.279C88.9912 330.33 84.5202 319.553 84.5078 308.313V281.109C84.5202 269.868 88.9912 259.091 96.9397 251.143C104.888 243.194 115.665 238.723 126.906 238.711H674.102C685.343 238.723 696.12 243.194 704.068 251.143C712.017 259.091 716.488 269.868 716.5 281.109V308.313C716.488 319.553 712.017 330.33 704.068 338.279C696.12 346.228 685.343 350.699 674.102 350.711ZM126.906 270.711C124.15 270.715 121.507 271.812 119.558 273.761C117.609 275.71 116.512 278.353 116.508 281.109V308.313C116.505 309.681 116.771 311.036 117.292 312.301C117.813 313.567 118.579 314.717 119.544 315.686C120.51 316.655 121.657 317.425 122.92 317.951C124.184 318.476 125.538 318.748 126.906 318.75H674.102C676.858 318.746 679.501 317.649 681.45 315.7C683.399 313.751 684.496 311.108 684.5 308.352V281.109C684.496 278.353 683.399 275.71 681.45 273.761C679.501 271.812 676.858 270.715 674.102 270.711H126.906Z" fill="black"/>
<path d="M337.141 239.312H363.547V344.898H337.141V239.312ZM404.5 718.75H260.508C186.789 718.75 124.508 656.469 124.508 582.742V334.711H156.539V582.719C156.539 609.891 167.547 635.844 187.531 655.805C207.516 675.766 233.391 686.719 260.508 686.719H404.5V718.75Z" fill="black"/>
<path d="M529.305 718.75H407.703C330.953 718.75 268.508 656.25 268.508 579.523V318.75H668.508V579.523C668.5 656.25 606.055 718.75 529.305 718.75ZM300.508 350.711V579.523C300.508 638.641 348.594 686.719 407.703 686.719H529.305C588.414 686.719 636.508 638.633 636.508 579.516V350.711H300.508Z" fill="black"/>
</svg>
